<svg xmlns="http://www.w3.org/2000/svg" viewBox="0 0 31.43 57.54"><defs><style>.cls-1{fill:rgb(45, 42, 38);}.cls-2{fill:white;}</style></defs><title>Recurso 4</title><g id="Capa_2" data-name="Capa 2"><g id="botones"><path class="cls-1" d="M15.94,0a6.89,6.89,0,0,0-4.58,1.6C8.64,4,5.32,6.1,4.62,9.69c-.65,3.3.25,6.67,1,9.94s1.32,6.48,1.76,9.76a11.42,11.42,0,0,1-.34,6C5.45,39.1.45,40.9,0,44.85A7.56,7.56,0,0,0,1.08,49a20.68,20.68,0,0,0,5.65,6.81,7.63,7.63,0,0,0,3.2,1.64,5,5,0,0,0,.9.08,9.1,9.1,0,0,0,4.36-1.43,37.92,37.92,0,0,0,9-7.62c2.84-3.13,5.48-6.63,6.56-10.71a32,32,0,0,0,.69-8.25,50.7,50.7,0,0,0-.35-7C30,15.1,26.32,8.25,21.62,2.38A7.79,7.79,0,0,0,15.94,0"/><path class="cls-2" d="M22.56,15.6,14.48,42.92a1.93,1.93,0,0,1-1.95,1.57,1.89,1.89,0,0,1-1.91-1.91,2.38,2.38,0,0,1,.15-.71l8-27.32a1.87,1.87,0,0,1,2-1.5A1.83,1.83,0,0,1,22.68,15a2.06,2.06,0,0,1-.11.64"/></g></g></svg>