<svg xmlns="http://www.w3.org/2000/svg" viewBox="0 0 848 855"><defs><style>.cls-1{fill:#f3f3f5;}.cls-2,.cls-4,.cls-8{fill:#fff;}.cls-3{fill:#e2e4e7;}.cls-4,.cls-6,.cls-9{stroke:#e2e4e7;}.cls-10,.cls-20,.cls-4,.cls-6,.cls-8{stroke-miterlimit:10;}.cls-16,.cls-20,.cls-4,.cls-6,.cls-8{stroke-width:2px;}.cls-5{fill:#312e2a;}.cls-10,.cls-13,.cls-14,.cls-16,.cls-19,.cls-20,.cls-6,.cls-7,.cls-9{fill:none;}.cls-7{stroke:#c2c3c9;stroke-width:0.5px;}.cls-10,.cls-13,.cls-14,.cls-16,.cls-19,.cls-7,.cls-9{stroke-linecap:round;}.cls-13,.cls-14,.cls-16,.cls-19,.cls-7,.cls-9{stroke-linejoin:round;}.cls-8{stroke:#87868a;}.cls-9{stroke-dasharray:4 6;}.cls-10{stroke:#f1a21e;}.cls-10,.cls-13,.cls-14{stroke-dasharray:4 2;}.cls-11{fill:#f1a21e;}.cls-12{fill:#5fa199;}.cls-13{stroke:#5fa199;}.cls-14{stroke:#bc9e6c;}.cls-15{fill:#b71765;}.cls-16{stroke:#b71765;}.cls-17{fill:#94bb1e;}.cls-18{fill:#bc9e6c;}.cls-19{stroke:#0098a6;stroke-width:3px;}.cls-20{stroke:#94bb1e;}</style></defs><title>antecedentes_eng</title><g id="Fondo"><rect class="cls-1" x="-0.05" y="-0.23" width="848" height="855"/></g><g id="ANTECEDENTES"><path class="cls-2" d="M714.05,761.11a6,6,0,0,1-6-6.16l0-1-3.13-4.65a6,6,0,0,1-1-2.84l-.06-.68-.35-.71-1.84-.83a6,6,0,0,1-2.5-2.09l-1.84-2.69-.3-.29-2.46-.07-2.14.37a6,6,0,0,1-3.2-.33l-1.79-.7a6,6,0,0,1-2.9-2.41l-1.85-.17a2016.7,2016.7,0,0,0-7.45-3.93L673.39,730l-.25-.28h0A6,6,0,0,1,670,728l-.46-.46-1.74,1.87a6,6,0,0,1-1.42,1.12l-1.64.94a6,6,0,0,1-6.65-.46l-1.59-1.23a5.89,5.89,0,0,1-.67-.6l-2.7-2.83a5.9,5.9,0,0,1-.46-.55l-.69-.92-1.17-.91a6,6,0,0,1-2.23-3.78l-1-.69-3.06-1-1.93-.6-1.53-.25a6,6,0,0,1-1.18-.32,6.06,6.06,0,0,1-.85.06,5.9,5.9,0,0,1-.85-.06l-1.44-.21-.63.18a6,6,0,0,1-1.35.23l-1.07.06h-.34a6,6,0,0,1-1.65-.23l-.9-.26a6,6,0,0,1-3.29-2.36l-1-1.44q-.14-.2-.26-.42l-1.41,0a6,6,0,0,1-2-.38l-2.5-.94a6,6,0,0,1-1.73-1l-1.91-1.59a6,6,0,0,1-4-1.75l-2-2-1.54-1a5.81,5.81,0,0,1-.49-.34l-1.29-1-.51,0-2.88-.39a6,6,0,0,1-3.67-1.94l-.52-.58-.44-.21-.94-.4h-1.05l-1.4-.08a6,6,0,0,1-4.15-2l-.93-1a11.74,11.74,0,0,1-1.74-1.71l-.15-.12-1.51-1.11-1.75-.36a17.43,17.43,0,0,0-6-3.91l-1.29-.9-.47-.2-.6-.11a6,6,0,0,1-4.11-2.93l-1.95-3.43q-.12-.22-.23-.45l0,0a23.61,23.61,0,0,1-6.41-4.8l-.78-1.33-.16-.3a6,6,0,0,1-2.22-2.67L519.42,646.4l-.48.18-2.42.81-2,.8a6,6,0,0,1-1.56.38l-5.15.55-.22,0-3,.21-2.25.41a6,6,0,0,1-1.07.1l-.53,0L498,649.6a6,6,0,0,1-2.45-.77l-.55-.31-.63.1a6,6,0,0,1-5.64-2.23L487.7,645l-.19-.17-1.8-.7-.34-.14-2-.94-.34-.17-.18-.1a6,6,0,0,1-3,.28l-2.83-.46-1-.15-1.68-.23a6,6,0,0,1-5-4.37l-.05-.18h-.32a6,6,0,0,1-2.45-.52L463.93,636l-3.3-.93-2.14-.06a6.15,6.15,0,0,1-.64-.05l-2.37-.32-1.43.06h-.24a6,6,0,0,1-3.21-.93l-4.17-2.65-1-.66-.6,0a6,6,0,0,0-3.12.23,6,6,0,0,1-4.68-2.24l-3.2-4a6,6,0,0,1-1.25-2.83l-.13-.84-1.22-1.45-2.2-2.13a6,6,0,0,1-.82-1l-1.87-2.81a6,6,0,0,1-1-3.92l.05-.5a6,6,0,0,1-1.36-.8l-1.73-1.35-.48,0-.48,0a6,6,0,0,1-2.6-.59l-1.95-.94a6,6,0,0,1-1.49-1l-2.18-2a6,6,0,0,1-1.35-1.86l-.84-.06a100.56,100.56,0,0,0-4-1.08l-4.44-1.87a6,6,0,0,1-1.73-1.11l-.93,0a6,6,0,0,1-4.77-2.36l-3.27-4.29a6,6,0,0,1-.59-.95,6,6,0,0,1-4.5-3.88l-.19-.52q-.21-.16-.4-.33l-.21-.19-1.4,0h-.26l-2.42-.16a6,6,0,0,1-4.36-2.32l-1.14-1.47a6,6,0,0,1-4.64-4.92l-.18-1.15-.67-.12a6,6,0,0,1-3.31-1.75l-2.18-2.26a6,6,0,0,1-1.22-1.86l-.34-.81-.32-.67a23.13,23.13,0,0,0-4.39-1.75l-1.64-.86a6,6,0,0,1-1.77-1.41l-.94-1.1-.55-.23a6,6,0,0,1-2.87-2.5l-.43-.74-.86-.91a6,6,0,0,1-1.63-3.89l-.08-2.19a6,6,0,0,1-1.56-2.64l-.66-2.34-1.76-1.46A6.67,6.67,0,0,0,341,542a274,274,0,0,1-3.11-4.73l-.1-.28a6,6,0,0,1-3-4.48l-1.25-1a6,6,0,0,1-2.22-5.05l0-.26a6,6,0,0,1-.83-.64l-2-1.87a6,6,0,0,1-1.64-6.26l.38-1.17a6,6,0,0,1-.94-.77l-.86-.86a5.73,5.73,0,0,1-.39-.43h-.71l-1.32-.07-4.14.1a6,6,0,0,1-4.9-2.53l-1.72-2.42q-.15-.22-.29-.44l-1-1.78-.66-.9-.16-.22-.44-.67-.7-.41-2.36-.73a5.81,5.81,0,0,1-.72-.27l-2.36-1.08a6,6,0,0,1-1.28-.79c-.54-.44-1.1-.89-1.63-1.39a6,6,0,0,1-2.83-2l-.82-1-.75-.75a6,6,0,0,1-.67-.79l-.68-1-.2-.15a28.05,28.05,0,0,1-11-6,6,6,0,0,1-1.8-5.43c.32-1.78.61-3.82.63-4.37a13.45,13.45,0,0,1,.71-3.78c.18-.61.36-1.26.52-2a7.59,7.59,0,0,1-1-.89l-5.62-6a6,6,0,0,1-1.61-4.09V458.9a41.38,41.38,0,0,0-2.53-3.61,6,6,0,0,1-1.28-3.7v-8.78l-19.21-14.73-19.06-6.59-11.54-3.12a6,6,0,0,1-2.35-1.25L211,409.84a6,6,0,0,1-.66-8.42l8.21-9.7,3-4.63a26.54,26.54,0,0,0-2.34-6.54c-2.46-3.58-1.8-7.45.31-10.9l-6.34-4.12a6,6,0,0,1-.58-.43l-3-2.53a7.38,7.38,0,0,0-2.9-1.55,5.67,5.67,0,0,1-4.32-2.63,5.93,5.93,0,0,1-.53-5.23,85.24,85.24,0,0,0,2.61-10.39,9.84,9.84,0,0,1-.29-1.89,17.92,17.92,0,0,1,.22-4.28,2.55,2.55,0,0,0-.08-1.41c-.21-.93-.42-1.72-.62-2.48a51.49,51.49,0,0,1-1.5-7.55l-.11-.89a10.74,10.74,0,0,1-.37-1.36,8.34,8.34,0,0,1,2.13-7.45,6,6,0,0,1-2.25-4.82c.19-7.34.29-16.16.12-18.29a6,6,0,0,1,5.83-7.43h3.13a6.78,6.78,0,0,1,.87.06,10,10,0,0,1,2.95-1.07,16.22,16.22,0,0,1,3-2.25c.17-.11.34-.2.47-.3a12.35,12.35,0,0,1,4.38-1.95l.29-.08a8.17,8.17,0,0,1,2.61-.4h.5a6.93,6.93,0,0,1,9.18,2.86,13,13,0,0,0,1.59,1.62l.69,0h.63a19.9,19.9,0,0,1,1.95-1.19c.56-1.73,2-3.6,5.29-4.74,2.62-.9,11.09-3.54,12.64-4,2.58-1,5.68-2.36,6.52-2.8.94-.66,4.65-3.63,8-6.34l2.35-4a6,6,0,0,1,5.17-3h3.64l4.46-3.74,3.57-5.21a14.49,14.49,0,0,0,.64-1.8,48.17,48.17,0,0,0-1.18-5.47,6,6,0,0,1-.21-1.56V234a6,6,0,0,1,.06-.85l.91-6.34.48-3.72a6,6,0,0,1,.38-1.47l1.77-4.42-2.36-3.92-7.6-7.6a6,6,0,0,1-.77-.95l-5-7.61a6,6,0,0,1-1-3.29v-5.71c-1.68-24,0-27.08.71-28.42.37-.7.82-1.78,1.25-2.82,1.4-3.39,2.84-6.9,5.92-8.77a3.88,3.88,0,0,0,.62-.5l-.46-3.62c-2.17-7.5-.78-10.27-.32-11.2a47.06,47.06,0,0,0,1.69-5.24,6,6,0,0,1,3.31-3.88,26.66,26.66,0,0,0,5.46-3.46l2.39-7.67a6,6,0,0,1,.72-1.52l3.07-4.65a6,6,0,0,1,1.49-1.56L324.48,89.6l.27-.19c7.63-4.89,16.69-10.94,18.49-12.48.78-.91,3-3.09,10.93-8.56l.44-.27,9.65-5.5a6,6,0,0,1,4.25-.65l11,2.4h8.13l5.56-2.14a6,6,0,0,1,4.84.23l4.18,2.09,7.8-2.45a6,6,0,0,1,4.87.57L422.07,67l4.55,2.22a6,6,0,0,1,.59.33l5.08,3.22L438.8,76l6.26,3.13,4.54,1.26,5.6-.36h.38a6,6,0,0,1,3.88,1.42c1.61,1.36,2.71,2.45,3.52,3.24,1.37,1.35,1.37,1.35,4.51,1.73a22.8,22.8,0,0,1,7.34,2c.69.31.69.31,1.07.31a13.55,13.55,0,0,0,1.72-.14c6.4-.87,11.1-1.29,11.3-1.31l.54,0a74,74,0,0,0,11.87-.78c1.2-.84,3.67-2.06,9.41-3.32,2.39-3.59,7.72-4.1,10.21-4.33,4.87-.46,6.81-.56,8.23-.56.68,0,1.21,0,1.8.05s1.1.05,2,.05a24.3,24.3,0,0,0,3-.16,44.11,44.11,0,0,1,5.33-.26,30.07,30.07,0,0,0,7.95-1.39,6.07,6.07,0,0,1,1.89-.3,6,6,0,0,1,.65,0l7.61.85a6,6,0,0,1,5.34,6v3.08l3,2.47,4.21.23,7.64-.34h.27a6,6,0,0,1,2.71.65L588,91.81a6,6,0,0,1,1.5,1.08l4.85,4.77,3.77,1.28L600,98l7.26-3.58a6,6,0,0,1,2.65-.62h5.62a6,6,0,0,1,1.3.14c.48.1,1.21.24,2,.35a8.22,8.22,0,0,0,.35-1.44,6,6,0,0,1,2.66-5.46l2.35-1.57.65-1.47v-3a6,6,0,0,1,.26-1.76c0-.54-.07-1.51-.23-3.14a34.22,34.22,0,0,1-.26-4l-.27-1.5c0-.28-.09-.46-.12-.57-1.86-2.69-1.69-5.18-1.19-8.9,0,0,.86-6.44.87-6.48a66.37,66.37,0,0,1,1.44-6.59l.82-3a6,6,0,0,1,2.32-3.29,65.29,65.29,0,0,0,6.32-5c.37-.86,1-2.48,1.49-3.72,1-2.53,1.62-4.14,2.13-5.16a52.77,52.77,0,0,1,5-7,6,6,0,0,1,5.32-3.59s.55,0,1.43,0c7.93,0,12.65,1,15.27,3.48a17.11,17.11,0,0,0,2.78-.73,6,6,0,0,1,5.41.62l4.08,2.71a6,6,0,0,1,1.92,2.08l2.81,5c2-.87,4.42-1.87,7-2.8a6,6,0,0,1,6.77,2l2.37,3.08c2.7.34,4.87,2.08,6.64,3.5.32.26.61.5.84.66,5.47,3.65,3.12,9.52,2.24,11.73a9.89,9.89,0,0,1-1.65,2.76,24.2,24.2,0,0,1,2.57,3l2.06,1c2,1,4.83,2.42,4.94,6.14a6.24,6.24,0,0,1-1.1,3.65,15.07,15.07,0,0,1-.63,4.5,9.48,9.48,0,0,0-.41,2.78,20.21,20.21,0,0,1,2.15,4.88l.86,3.45,5.18,4.15a6,6,0,0,1,2.07,3.23l.45,1.8a9.07,9.07,0,0,1-.15,4.8,18.2,18.2,0,0,1,6.17,3.34c.51.37,1.07.78,1.71,1.22a7.2,7.2,0,0,1,3.16,8.21c-1.8,5.79-9.65,6.51-12.66,6.57a11.26,11.26,0,0,0-2.35,3.39L706.25,168,708.5,173a6,6,0,0,1,.54,2.48v7.6a6,6,0,0,1-2,4.44l-5.74,5.22-18.18,59.84,18.16,21.72a6,6,0,0,1-2.9,9.6L680,289.36a6,6,0,0,1,2.33,3.51l2.87,12.47,3.53,2.58a6,6,0,0,1,2.09,2.79l1.86,5.13a6,6,0,0,1-.71,5.47l-1.46,2.1,2.49,7,.47,0,.54,0a6,6,0,0,1,4.53,2.77l5.16,8.15a6,6,0,0,1,0,6.37,6.08,6.08,0,0,1-.38.54l1.61,2.71a6,6,0,0,1-1.79,8l3.2,3.84a6,6,0,0,1,.51,7l-2.37,3.88.8,9.43a6,6,0,0,1-1,3.78l-2.59,4,1.09.81a6,6,0,0,1,1.8,7.45l-7.34,15,1.16.93a6,6,0,0,1,1.82,6.91l-.49,1.21,1.57,2.35a6,6,0,0,1-.35,7.13l-2.14,2.62,1,9.11a6,6,0,0,1-.21,2.33L697,455.75a6,6,0,0,1-.62,1.41l-2.4,4L695.33,476l3.66.24a6,6,0,0,1,5.62,5.88l0,1.09a6,6,0,0,1,4.19,5.5l.49,13,1.9,2.52a6,6,0,0,1,1.15,2.73L714,517.71A6,6,0,0,1,708,524.6h-.24l1.32,1.22a6,6,0,0,1,1.94,4.51l-.08,4.73,4,5.32a6,6,0,0,1,1.17,4.06l-.31,3.92.65,1.18,5,.06a6,6,0,0,1,5.79,7.26l-.56,2.61,10.18,8.64a6,6,0,0,1,.75,8.39l-1,1.24a6,6,0,0,1,4.44,5.69l.18,10.39a6,6,0,0,1-1.35,3.9l14.76,8.68a6,6,0,0,1,2.94,5.63L756.42,627a6,6,0,0,1-1.61,3.66l4.49,6.06a6,6,0,0,1,1.18,3.5l.11,9.13a5.66,5.66,0,0,0,1.39,5.41l.2,4.84a6,6,0,0,1,4.21,5.69l.21,33.2a6,6,0,0,1-1.78,4.3l-8.47,8.37-.09.82,3,1.92a6,6,0,0,1,2.47,6.84l-1.62,5.16a6,6,0,0,1-5.44,4.2l-1.24.06a6,6,0,0,1-2.73,4.78l-10.13,6.56a6,6,0,0,1-2.91,1l-2.67.16.11.88a6,6,0,0,1-.34,2.83L733,750.84a6,6,0,0,1-3,3.29l-13.34,6.39A6,6,0,0,1,714.05,761.11Z"/><path class="cls-3" d="M650.2,23.69c3,0,10.47.22,11.55,2.37.45.9,1.56,1.2,2.83,1.2a20.14,20.14,0,0,0,5.77-1.2l4.08,2.71L680,38.69a105.93,105.93,0,0,1,11.56-5L696,39.59l1.35-.45a1,1,0,0,1,.33-.05c1.43,0,3.83,2.37,5.08,3.21s.9,2.26,0,4.51-2.71,1.8-3.16,4.51,3.61,4.51,5.41,8.12l3.61,1.8c3.61,1.8,0,0,.45,3.61s-1.35,4.06-.9,9.92a19.57,19.57,0,0,1,2.26,4.51l1.35,5.41,6.77,5.41.45,1.8c.45,1.8-1.35,3.61-.9,5.41s2.26,3.16,4.51,3.61,3.61,1.8,6.53,3.82-2,3.85-6.53,3.85-7.57,7.34-7.57,7.34l-15.2,52.56,3.17,7v7.6l-7,6.33-19.6,64.53,20.24,24.21-20.34,6-2,.59.08.56L672.57,292l3.91,2.25,3.38,14.65,5.33,3.9,1.86,5.13-3.22,4.63L688,334.11,687.4,343l6.08-6.59,5.16,8.15-6.11-.64-5,5.41,9.14-.51,3.1,5.22-6.32,2.69,8.29,9.95-3.39,5.56,1,11.39-5.66,8.69,5.6,4.18-9.46,19.31,4.9,3.93-1.66,4.15,3.32,5-3.73,4.56L693.89,445l-2.66,9.07-3.41,5.66,2,21.94,8.78.56.11,6.1,4.11.61.56,14.89,3,4L708,518.6l-8.55-.21L697,522.82l8.06,7.41-.11,6.77,5.19,7-.46,5.72,3.22,5.8,8.49.11-1.31,6.12,12.92,11-3.55,4.3.6,6.3,5,.25.18,10.39-5,2.48,1.25,3.35,20.09,11.82-1.14,14.95-4.57,2.12,8.61,11.62.11,9.13-3.55.32-1,5L756,655l.43,10.21,4,.11.21,33.2-10,9.89-.69,6.62,6.06,3.91-1.62,5.16-6.82.32-.13,5.47-10.13,6.56-9,.54.86,7.2-1.72,4.55L714.31,755l-.26.13v-.56l.06-2.4-4.21-6.24-.16-1.79L708,740.45l-3.82-1.72-2.18-3.2-2.42-2.34-5.38-.16-2.73.47-1.79-.7L689.1,730H685l-1.72-.16-.7-1.79-3-.31-1.87-1.95-.94-1.56-2.57-.47L673,722.52l-1.25-1.79-1.64-.78-3.59,2-3.12,3.35-1.64.94L660.15,725l-2.7-2.83-1.17-1.56-1.79-1.4-.31-2.42-3.82-2.73-4-1.33-1.51-.47L644,712l-1.93-.32-1.85-.73-1.17.39-2.73-.39-1.87.55-1.07.06-.9-.26-1-1.44-1.33-3h-1.71l-3.43-.08-2.49-.94-3.66-3-1.79.08-2.49-2.49-2.11-1.33L609.66,697l-1.87-.08-2.88-.39L603.58,695l-1.64-.78-2.18-.94h-1.95l-1.4-.08-1.25-1.4a8.26,8.26,0,0,1-1.25-1.17,7.19,7.19,0,0,0-1.17-1.09l-2.65-1.95-3-.62L586,685l-.62-1h-2.1l-1.79-1.25-1.64-.7-1.25-.23-1.95-3.43-.94-2-.94-1.25-1.25-.16h-1.25l-1-1.87L570,673l-.78-1.33-.31-1.33-1.72-.94.16-1.25L520.47,640a5.65,5.65,0,0,0-1.09-.13,1.78,1.78,0,0,0-.47.05,13.41,13.41,0,0,0-1.87.94l-2.57.86-2.18.86-5.15.55-3.35.23-2.57.47-2.65-.23-2.18-1.25-1.87.16-1,.16-1.4-1.79-1.4-1.25-2.81-1.09-2-.94-1.87-1-2.11-.08-1.09.62-2.88-.47-1.09-.16-1.72-.23-.47-1.72-.08-2.49-1.48-.47-4.13.08-3-1.33-4.44-1.25-2.88-.08-2.88-.39-1.95.08-4.05-2.57-3-2-.78-.47-1.09.86-2.26-.47-.86.7-3.2-4-.39-2.49-2.49-3L433.23,613l-1.87-2.81.39-3.9-1.48-1.72-2.49-1-1.79-1.4-.7-1.48-3.9.31-1.95-.94-2.18-2-.7-1.95-1.17-1.25-1.79-.16-2.18-.16v-1.4l-2.1.78L404.85,592l-1.64-1.64-3.35.08-3.27-4.29-.23-2.81-4-.39-.86-2.42-1.33-.86L388.32,578l-3.66-.08-2.42-.16-2.65-3.43-1.95-.23-.86-5.38-1.72-.31-3.2-.55-2.18-2.26-.39-.94-1.87-4-2.81-.16-1.56-1.79-1.17.62-1.64-.86-1.87-2.18-1.87-.78-.78-1.33-1.33-1.4-.23-6.08-1.64-.16-1.17-4.13-3.2-2.65-.47-2.1-.86-.78-1.87.62.31-1.48-1.79-.86-1-2.73-1.79-.7.16-1.33-1.56-1.95-2-1.64.16-2.42-.08-2.65-1.87-1.4-.94.78-2-1.87.94-2.88.86-3.2-1.79-1.48-.55-1.4-1.48.94-.86-.86.55-2.18h-5.55l-1.57-.09-4.23.11-1.72-2.42-1.2-2.06-.86-1.16a7.63,7.63,0,0,1-.79-1.42c0-.23-1.35-.94-1.35-.94l-1.52-.9-3-.94L306,497.3s-1.76-1.42-1.76-1.65-1.78-.77-1.78-.77l-1-1.29-1-1-1.2-1.71-1-.8-.13-.55a22,22,0,0,1-10.36-5s.73-4.09.73-5.36,1.27-3.81,1.59-7.61c.24-2.85-1.53-3.21-2.44-3.21a2.91,2.91,0,0,0-.5,0l-5.62-6v-4.55c0-1.38-3.81-6.24-3.81-6.24V439.86l-22.33-17.13-20.17-7-11.74-3.17-7.8-6.72-.66-.57,8.45-10,4.62-7.07s-1.52-7.77-3.81-11.1,4.51-8.71,4.51-8.71l-12.21-7.94-3-2.53a12.68,12.68,0,0,0-5.92-2.9,90.36,90.36,0,0,0,2.83-11.23,23.71,23.71,0,0,0,.48-2.86s-.24.6-.41.6-.22-.25-.27-1.07c-.21-3.33.76-3.33,0-6.66a71.09,71.09,0,0,1-2-9.44c-.21-1.69-.26-2.09-.27-2.09s0,.33,0,.33-.1-.21-.25-.94c-.56-2.71,3.33-3.4,4.94-6.94s-4.94-4-4.94-4,.5-19-.05-19.88h3.13c.6,0,1,.81,1.68.81.34,0,.74-.2,1.27-.81,1.59-1.81,3.57-.73,4.5-2.06s2.52-2,3.42-2.69A9.7,9.7,0,0,1,224.5,285a2.36,2.36,0,0,1,.75-.1c.54,0,1.14.1,1.74.1s1.22-.82,1.87-.82c.31,0,.62.18,1,.72a21.24,21.24,0,0,0,3.84,3.93,9.28,9.28,0,0,0,2.81.58h.27l.49,0,1.29,0a3.17,3.17,0,0,0,2.08-.58,15.75,15.75,0,0,1,2.94-1.79c.91-.45.48-.68,1.6-1.59s-.86-1.36,1.91-2.31,12.71-4,12.71-4,6.37-2.56,7.63-3.32,9.47-7.5,9.47-7.5l2.9-4.93h5.82l6.77-5.67,4.35-6.34a17.88,17.88,0,0,0,1.38-4.23c.19-1.69-1.38-7.54-1.38-7.54V234l.91-6.34.49-3.81,2.88-7.19-4.28-7.11-8.12-8.12-5-7.61v-5.92s-1.59-22.41,0-25.37,2.92-8,5-9.3a14.7,14.7,0,0,0,3.77-3.81l-.85-6.67s-1.69-5.59-.85-7.28a53.34,53.34,0,0,0,2.11-6.34,33.45,33.45,0,0,0,8.2-5.5l2.9-9.3,3.07-4.65L328,94.46s18.48-11.85,19.74-13.55,9.85-7.61,9.85-7.61l8.94-5.09.71-.4,11.59,2.54h9.9l6.6-2.54L401.65,71l10.11-3.17,7.45,4.44L424,74.57,429.34,78l6.78,3.38,6.77,3.38L449,86.42l6.61-.42c5.5,4.65,4.19,5.5,11.19,6.34,5.87.71,5.63,2.33,9.13,2.33a19,19,0,0,0,2.52-.2c6.34-.86,11-1.28,11-1.28s13.34,0,15.11-1.69,11.84-3.38,11.84-3.38-3.84-2.54,5.1-3.38c4.47-.42,6.39-.53,7.66-.53s1.91.11,3.81.11c3.81,0,3.59-.42,8.35-.42a36.22,36.22,0,0,0,9.83-1.69l7.61.85V89l6.74,5.51,6.47.36,7.94-.36,5.35,2.71,5.83,5.74,7.49,2.54,4.1-2.11,7.26-3.58h5.62a29.84,29.84,0,0,0,5.23.67c1.11,0,2-.17,2.26-.67,2.54-5.3,2.11-7.42,2.11-7.42L629,89.8l1.87-4.23V81.34h0c.11,0,.5-.32,0-5.5-.6-5.92.25-1.27-.6-5.92s-2.11-1.27-1.27-7.61l.85-6.34A60.13,60.13,0,0,1,631.1,50l.82-3s7.19-5.07,8-6.77,3-7.61,3.81-9.3a70.05,70.05,0,0,1,5-6.77l.16-.55h1.25m55.6,37.26,0,.1,0-.1h0M650.2,11.69c-1,0-1.61,0-1.61,0A12,12,0,0,0,638.37,18c-4.05,5-5,6.94-5.33,7.6-.64,1.28-1.31,3-2.35,5.67-.26.66-.61,1.57-.92,2.34-1.2,1-3.22,2.54-4.76,3.62a12,12,0,0,0-4.64,6.59l-.82,3A71.49,71.49,0,0,0,618,54.1l0,.28-.85,6.34c-.56,4.17-.81,8,1.47,12l.06.34c0,1.11.13,2.37.29,4,.09.87.14,1.5.17,2a12,12,0,0,0-.23,2.33v.79l-.33.22a12,12,0,0,0-4.43,5.4h-4.13A12,12,0,0,0,604.63,89l-7,3.46-.07,0-3.87-3.81a12,12,0,0,0-3-2.16l-5.35-2.71a12,12,0,0,0-5.41-1.29h-.54l-7.34.33-1.27-.07a12,12,0,0,0-10.67-11.63l-7.61-.85a12.6,12.6,0,0,0-1.39-.08,11.37,11.37,0,0,0-3.73.62,23.75,23.75,0,0,1-6,1.08,50.38,50.38,0,0,0-6,.29,18.43,18.43,0,0,1-2.4.13c-.76,0-1.19,0-1.73,0s-1.22-.06-2.09-.06c-1.9,0-4.37.16-8.79.58a28.55,28.55,0,0,0-7.77,1.64,15,15,0,0,0-5.15,3.27,33.39,33.39,0,0,0-8.36,3,90.65,90.65,0,0,1-9.65.49c-.36,0-.72,0-1.07,0-.2,0-5,.46-11.56,1.34l-.19,0a28.87,28.87,0,0,0-8.42-2.17l-1.13-.15c-.86-.85-2-2-3.75-3.44A12,12,0,0,0,455.57,74l-.77,0-4.58.29-3-.84-5.73-2.87-6.24-3.11-4.82-3.05a11.93,11.93,0,0,0-1.17-.66l-4.32-2.1-7-4.18a12,12,0,0,0-9.73-1.14l-5.49,1.72-2-1a12,12,0,0,0-9.68-.47l-4.52,1.74h-6.37l-10.32-2.26a12,12,0,0,0-8.51,1.3l-.71.4-8.93,5.09q-.45.26-.87.55c-7.59,5.24-10.41,7.75-11.7,9.16-2.32,1.8-10.66,7.35-17.55,11.77l-.55.37L299.9,99.95a12,12,0,0,0-3,3.12l-3.07,4.65a12,12,0,0,0-1.44,3l-1.81,5.82a18.37,18.37,0,0,1-2.79,1.62,12,12,0,0,0-6.61,7.77c-.44,1.6-1.06,3.59-1.34,4.27-.82,1.66-2.67,5.75-.18,14.8-2.92,2.83-4.43,6.49-5.69,9.55-.34.82-.76,1.84-1,2.27-1.28,2.38-3.2,6-1.42,31.46v5.5a12,12,0,0,0,2,6.59l5,7.61a12,12,0,0,0,1.55,1.9l7.08,7.07.44.74-.66,1.65a12,12,0,0,0-.76,2.93l-.48,3.72-.89,6.25a12,12,0,0,0-.12,1.7v5.57a12,12,0,0,0,.41,3.12c.28,1,.57,2.27.76,3.22l-2.49,3.64-2.16,1.81h-1.45a12,12,0,0,0-10.35,5.92l-1.81,3.08c-2.59,2.11-5.3,4.28-6.44,5.14-1.07.5-3.46,1.5-5.43,2.3-2.17.68-10,3.11-12.58,4a15.38,15.38,0,0,0-5.89,3.53,12.77,12.77,0,0,0-12.67-2.4,14.22,14.22,0,0,0-3.66.63l-.12,0a18.39,18.39,0,0,0-6.25,2.81l-.21.13a24.73,24.73,0,0,0-2.76,1.92c-.4.13-.82.27-1.25.45h-2.77a12,12,0,0,0-11.79,14.22c.12,2.48,0,10.67-.15,17.34a12.89,12.89,0,0,0,1,5.41,14.24,14.24,0,0,0-.73,8.23q.16.77.36,1.47l0,.32a57.34,57.34,0,0,0,1.65,8.33c.17.65.33,1.27.49,1.95a23.84,23.84,0,0,0-.2,5.08q0,.79.17,1.54a79.62,79.62,0,0,1-2.19,8.47,12,12,0,0,0,9.11,15.59,2.19,2.19,0,0,1,.48.31l3,2.53a12,12,0,0,0,1.16.86l2.19,1.42a15.07,15.07,0,0,0,2.08,11.85,15.12,15.12,0,0,1,.86,2.27l-1.33,2-8,9.42a12,12,0,0,0,1.32,16.84l.66.57,7.8,6.72a12,12,0,0,0,4.7,2.5l11.34,3.06,17.94,6.21,16.09,12.34v5.82a12,12,0,0,0,2.55,7.4c.4.52.86,1.14,1.25,1.7v1.68a12,12,0,0,0,3.23,8.19l4.29,4.6a16.53,16.53,0,0,0-.54,3.69c-.06.62-.31,2.27-.55,3.6a12,12,0,0,0,3.61,10.85A33.86,33.86,0,0,0,291,500.1a12,12,0,0,0,.89,1l.52.52.61.77a12,12,0,0,0,4.3,3.38c.39.33.76.63,1.08.89a12,12,0,0,0,2.56,1.58l2.36,1.08a12,12,0,0,0,1.45.55l.89.27.17.23.87,1.49q.27.46.57.89l1.72,2.42a12,12,0,0,0,9.79,5.07h.31l1.41,0a12,12,0,0,0,3.83,7.91l1.11,1a12,12,0,0,0,4,6.82,170.61,170.61,0,0,1,4.72,6.78,12,12,0,0,0,5.57,5.59q.37.37.77.7l.33.27.15.54a12,12,0,0,0,1.42,3.17v.26a12,12,0,0,0,3.27,7.78l.39.42.09.16a12,12,0,0,0,4.91,4.62l.06.07a12,12,0,0,0,3.54,2.82l1.64.86a12,12,0,0,0,2.24.9l.49.27a12,12,0,0,0,2,2.77l2.18,2.26a12,12,0,0,0,3.28,2.4,12,12,0,0,0,6.18,6.43l.05.07a12,12,0,0,0,8.72,4.64l1,.07a12,12,0,0,0,4.88,4.09l2.95,3.86a12,12,0,0,0,8.54,4.68,12,12,0,0,0,1.33.66l4.44,1.87a111.07,111.07,0,0,1,3.77,1.19q.32.35.68.68l2.18,2a12,12,0,0,0,3,2l1.95.94a12,12,0,0,0,3.47,1.06,12,12,0,0,0,1.71,4l1.87,2.81a12,12,0,0,0,1.64,2l2,1.9a12,12,0,0,0,2.33,4.8l3.2,4a12,12,0,0,0,11.41,4.3l3.6,2.29a12,12,0,0,0,6.43,1.87h.48l.9,0,1.85.25a12,12,0,0,0,1.28.1l1.4,0,2.16.61,2.16,1a12,12,0,0,0,1.18.45,12,12,0,0,0,8.26,5.08l1.67.23.95.14,2.77.45a12,12,0,0,0,3.19.09l.79.37.68.29.35.14.16.21a12,12,0,0,0,9.45,4.6h.41a12,12,0,0,0,3.61.9l2.65.23q.53,0,1.05,0a12,12,0,0,0,2.15-.19l1.92-.35,2.69-.19.43,0,5.15-.55a12,12,0,0,0,3.12-.76l1.89-.74.16-.05,38.47,23.11a12,12,0,0,0,2.06,2.35l.39.66a30.22,30.22,0,0,0,7.43,6.65l1.14,2a12,12,0,0,0,7.78,5.78l.47.33a1908.15,1908.15,0,0,0,8.18,4.87l.46.09a17,17,0,0,0,1.72,1.66l.62.7a12,12,0,0,0,8.3,4l1,.05a12,12,0,0,0,6.59,3.13l1.82.25q.46.36,1,.67l1,.61,1.54,1.54a12,12,0,0,0,5.63,3.17l.65.54a12,12,0,0,0,3.45,2l2.49.94a12,12,0,0,0,2.19.59,12,12,0,0,0,6.19,4.19l.9.26a12,12,0,0,0,3.3.46l.67,0,1.07-.06a12,12,0,0,0,2-.29l.21,0a12,12,0,0,0,1.7.12h.16q.44.11.89.18l1.12.19.09,0,1.4.43,1,.34a12,12,0,0,0,3.38,4.16l.54.42.22.29a12,12,0,0,0,.93,1.09l2.7,2.83a12,12,0,0,0,1.33,1.2l1.58,1.23a12,12,0,0,0,13.3.93l1.64-.94q.42-.24.82-.51l.79.82a38.51,38.51,0,0,0,10.69,5.68,12,12,0,0,0,3.65,2.25l1.79.7a12,12,0,0,0,6.4.65l.59-.1.18.26a11.84,11.84,0,0,1,5.73,7.12l2.09,3.1a12,12,0,0,0,17.17,10.21l.26-.12,13.09-6.27a12,12,0,0,0,6-6.59l1.72-4.55.15-.41a12,12,0,0,0,3.32-1.49l10.13-6.56a211.08,211.08,0,0,1,11.87-12.27l1.62-5.16A12,12,0,0,0,765,711l4-4a12,12,0,0,0,3.56-8.61l-.21-33.2a12,12,0,0,0-4.35-9.17l-.07-1.57a12,12,0,0,0-1.39-5.12v-.11l-.11-9.13a12,12,0,0,0-2.36-7l-2.23-3a12,12,0,0,0,.51-2.68l1.14-14.95a12,12,0,0,0-5.88-11.25l-10.5-6.18a12,12,0,0,0,.05-1.34L747,583.32a12,12,0,0,0-2.55-7.18,12,12,0,0,0-3.73-12.61l-7.48-6.35a12,12,0,0,0-11.15-13.57,12,12,0,0,0-2.38-6.83L717,533.11l0-2.68a12,12,0,0,0-.44-3.43l.42-.45a12,12,0,0,0,2.87-9.72l-1.61-10.75a12,12,0,0,0-2.29-5.46l-.77-1-.42-11.12a12,12,0,0,0-4.51-8.93,12,12,0,0,0-9.45-9.12l-.72-7.89,1.38-2.3a12,12,0,0,0,1.24-2.82l2.66-9.07a12,12,0,0,0,.42-4.65l-.71-6.61.55-.67a12,12,0,0,0,.77-14.14,12,12,0,0,0-1.85-9.4l5.46-11.14a12,12,0,0,0-.61-11.67,12,12,0,0,0,1.86-7.5l-.63-7.48L712,372.9A12,12,0,0,0,711,359l-.17-.2q.22-.5.39-1a12,12,0,0,0-1.06-9.81,12,12,0,0,0-1.37-9.81L703.62,330a12,12,0,0,0-6.14-4.9l-.28-.78a12,12,0,0,0,1.13-10.5l-1.86-5.13a12,12,0,0,0-4.19-5.59l-1.73-1.27-2-8.73,11.58-3.44a12,12,0,0,0,5.79-19.2l-16.08-19.23,16.76-55.15,4.52-4.11a12,12,0,0,0,3.93-8.88v-7.6a12,12,0,0,0-1.08-5l-1.33-2.93,13.65-47.2c5.08-.62,12.78-2.86,15.18-10.56A13.2,13.2,0,0,0,736,94.89c-.59-.41-1.11-.79-1.58-1.13a38.47,38.47,0,0,0-3.34-2.25,14.37,14.37,0,0,0-.4-2.5l-.45-1.8a12,12,0,0,0-4.15-6.46l-3.6-2.88-.37-1.48a22.72,22.72,0,0,0-1.78-4.6l0-.06a22.08,22.08,0,0,0,.79-4.37,12,12,0,0,0,1.14-5.49,12.19,12.19,0,0,0-6.44-10.4c-.48-.27-1-.51-1.63-.85A19.39,19.39,0,0,0,715.6,45a13.75,13.75,0,0,0-6-12.57L709,32a22.6,22.6,0,0,0-6.93-4.15L701,26.41a12,12,0,0,0-13.55-4c-.8.29-1.59.58-2.36.88l-.21-.38a12,12,0,0,0-3.85-4.16L677,16.06a12,12,0,0,0-6.62-2,11.61,11.61,0,0,0-3.78.63c-4.61-2.52-10.66-3-16.39-3Z"/><path class="cls-4" d="M714.07,754.55l.06-2.4-4.21-6.24-.16-1.79L708,740.45l-3.82-1.72-2.18-3.2-2.42-2.34-5.38-.16-2.73.47-1.79-.7L689.1,730H685l-1.72-.16-.7-1.79-3-.31-1.87-1.95-.94-1.56-2.57-.47L673,722.52l-1.25-1.79-1.64-.78-3.59,2-3.12,3.35-1.64.94L660.15,725l-2.7-2.83-1.17-1.56-1.79-1.4-.31-2.42-3.82-2.73-4-1.33-1.51-.47L644,712l-1.93-.32-1.85-.73-1.17.39-2.73-.39-1.87.55-1.07.06-.9-.26-1-1.44-1.33-3h-1.72l-3.43-.08-2.49-.94-3.66-3-1.79.08-2.49-2.49-2.11-1.33L609.66,697l-1.87-.08-2.88-.39L603.58,695l-1.64-.78-2.18-.94h-1.95l-1.4-.08-1.25-1.4a8.26,8.26,0,0,1-1.25-1.17,7.19,7.19,0,0,0-1.17-1.09l-2.65-1.95-3-.62L586,685l-.62-1h-2.1l-1.79-1.25-1.64-.7-1.25-.23-1.95-3.43-.94-2-.94-1.25-1.25-.16h-1.25l-1-1.87L570,673l-.78-1.33-.31-1.33-1.72-.94.16-1.25L520.47,640a4.18,4.18,0,0,0-1.56-.08,13.41,13.41,0,0,0-1.87.94l-2.57.86-2.18.86-5.15.55-3.35.23-2.57.47-2.65-.23-2.18-1.25-1.87.16-1,.16-1.4-1.79-1.4-1.25-2.81-1.09-2-.94-1.87-1-2.1-.08-1.09.62-2.88-.47-1.09-.16-1.72-.23-.47-1.72-.08-2.49-1.48-.47-4.13.08-3-1.33-4.44-1.25-2.88-.08-2.88-.39-1.95.08-4.05-2.57-3-2-.78-.47-1.09.86-2.26-.47-.86.7-3.2-4-.39-2.49-2.49-3L433.23,613l-1.87-2.81.39-3.9-1.48-1.72-2.49-1-1.79-1.4-.7-1.48-3.9.31-1.95-.94-2.18-2-.7-1.95-1.17-1.25-1.79-.16-2.18-.16v-1.4l-2.1.78L404.85,592l-1.64-1.64-3.35.08-3.27-4.29-.23-2.81-4-.39-.86-2.42-1.33-.86L388.32,578l-3.66-.08-2.42-.16-2.65-3.43-1.95-.23-.86-5.38-1.72-.31-3.2-.55-2.18-2.26-.39-.94-1.87-4-2.81-.16-1.56-1.79-1.17.62-1.64-.86-1.87-2.18-1.87-.78-.78-1.33-1.33-1.4-.23-6.08-1.64-.16-1.17-4.13-3.2-2.65-.47-2.1-.86-.78-1.87.62.31-1.48-1.79-.86-1-2.73-1.79-.7.16-1.33-1.56-1.95-2-1.64.16-2.42-.08-2.65-1.87-1.4-.94.78-2-1.87.94-2.88.86-3.2-1.79-1.48-.55-1.4-1.48.94-.86-.86.55-2.18h-5.55l-1.57-.09-4.23.11-1.72-2.42-1.2-2.06-.86-1.16a7.63,7.63,0,0,1-.79-1.42c0-.23-1.35-.94-1.35-.94l-1.52-.9-3-.94L306,497.3s-1.76-1.42-1.76-1.65-1.78-.77-1.78-.77l-1-1.29-1-1-1.2-1.71-1-.8-.47-2L326.6,380.94l-2.08-47.4L352,291.13l16.22-42.41,94-16.84L517.46,215l77.34-1.66L671,261l.1.69,1.28,8.47,2.1,15.16L672.57,292l3.91,2.25,3.38,14.65,5.33,3.9,1.86,5.13-3.22,4.63L688,334.11,687.4,343l6.08-6.59,5.16,8.15-6.11-.64-5,5.41,9.14-.51,3.1,5.22-6.32,2.69,8.29,9.95-3.39,5.56,1,11.39-5.66,8.69,5.6,4.18-9.46,19.31,4.9,3.93-1.66,4.15,3.32,5-3.73,4.56L693.89,445l-2.66,9.07-3.41,5.66,2,21.94,8.78.56.11,6.1,4.11.61.56,14.89,3,4L708,518.6l-8.56-.21L697,522.82l8.06,7.41-.11,6.77,5.19,7-.46,5.72,3.22,5.8,8.49.11-1.31,6.12,12.92,11-3.55,4.3.6,6.3,5,.25.18,10.39-5,2.48,1.25,3.35,20.09,11.82-1.14,14.95-4.57,2.12,8.61,11.62.11,9.13-3.55.32-1,5L756,655l.43,10.21,4,.11.21,33.2-10,9.89-.69,6.62,6.06,3.91-1.62,5.16-6.82.32-.13,5.47-10.13,6.56-9,.54.86,7.2-1.72,4.55L714.31,755l-.26.13Z"/><path class="cls-5" d="M486.89,749l5.35,14.45a.52.52,0,0,1,0,.2.25.25,0,0,1-.27.24c-.15,0-.22-.07-.29-.27l-1.59-4.31h-7l-1.59,4.31c-.07.2-.13.27-.29.27a.25.25,0,0,1-.26-.24.54.54,0,0,1,0-.2L486.41,749a.25.25,0,0,1,.49,0Zm-.24.64-3.31,9.19H490Z"/><path class="cls-5" d="M496.68,756.81v6.8a.27.27,0,1,1-.53,0V749.25a.26.26,0,0,1,.27-.26h5.17a3.91,3.91,0,0,1,.68,7.78l3.36,6.69a.41.41,0,0,1,0,.18.25.25,0,0,1-.24.24c-.13,0-.2-.07-.27-.2l-3.45-6.87h-5Zm0-7.34v6.85h5a3.42,3.42,0,0,0,0-6.85Z"/><path class="cls-5" d="M515.18,764c-4,0-6-3.67-6-7.62s2.17-7.62,6-7.62a5.18,5.18,0,0,1,4.4,2.32.3.3,0,0,1,.07.18.25.25,0,0,1-.27.24.26.26,0,0,1-.22-.13,4.68,4.68,0,0,0-4-2.12c-3.58,0-5.46,3.49-5.46,7.14s1.79,7.16,5.48,7.16a5.93,5.93,0,0,0,4.44-1.92v-4.07h-4.18a.23.23,0,0,1-.24-.24.23.23,0,0,1,.24-.22h4.44a.22.22,0,0,1,.24.24v4.24a.44.44,0,0,1-.11.31A6.24,6.24,0,0,1,515.18,764Z"/><path class="cls-5" d="M524.88,763.7a.26.26,0,0,1-.27-.26V749.25a.26.26,0,0,1,.27-.26h7.49a.24.24,0,1,1,0,.49h-7.22v6.3h4.73a.24.24,0,1,1,0,.49h-4.73v7h7.49a.24.24,0,0,1,0,.49Z"/><path class="cls-5" d="M546,763.7l-8.73-13.79v13.7a.24.24,0,0,1-.26.27.24.24,0,0,1-.24-.27V749.07c0-.18.09-.26.24-.26a.29.29,0,0,1,.26.18L546,762.79V749.07a.24.24,0,0,1,.27-.26.24.24,0,0,1,.24.26v14.56a.22.22,0,0,1-.24.24A.31.31,0,0,1,546,763.7Z"/><path class="cls-5" d="M555,749.47v14.14a.27.27,0,1,1-.53,0V749.47H550a.25.25,0,0,1-.27-.24A.24.24,0,0,1,550,749h9.46a.24.24,0,0,1,.27.24.25.25,0,0,1-.27.24Z"/><path class="cls-5" d="M563.66,763.61a.27.27,0,1,1-.53,0V749.07a.27.27,0,0,1,.53,0Z"/><path class="cls-5" d="M577.87,763.7l-8.73-13.79v13.7a.24.24,0,0,1-.26.27.24.24,0,0,1-.24-.27V749.07c0-.18.09-.26.24-.26a.29.29,0,0,1,.26.18l8.73,13.81V749.07a.24.24,0,0,1,.27-.26.24.24,0,0,1,.24.26v14.56a.22.22,0,0,1-.24.24A.31.31,0,0,1,577.87,763.7Z"/><path class="cls-5" d="M588.12,749l5.35,14.45a.52.52,0,0,1,0,.2.25.25,0,0,1-.27.24c-.15,0-.22-.07-.29-.27l-1.59-4.31h-7l-1.59,4.31c-.07.2-.13.27-.29.27a.25.25,0,0,1-.26-.24.54.54,0,0,1,0-.2L587.64,749a.25.25,0,0,1,.49,0Zm-.24.64-3.31,9.19h6.63Z"/><path class="cls-5" d="M723.72,201.66a.26.26,0,0,1-.27-.27V187.21a.26.26,0,0,1,.27-.26h4.15c2.3,0,4,1.39,4,3.65a3.57,3.57,0,0,1-2.72,3.38,3.75,3.75,0,0,1,3.67,3.78c0,2.08-1.39,3.91-4.62,3.91Zm.26-14.23v6.41h3.54c2.25,0,3.8-1.41,3.8-3.27a3.13,3.13,0,0,0-3.42-3.14Zm0,6.87v6.87h4.26c2.67,0,4-1.44,4-3.45s-1.53-3.42-4.18-3.42Z"/><path class="cls-5" d="M737.42,194.76v6.81a.27.27,0,1,1-.53,0V187.21a.26.26,0,0,1,.27-.26h5.17a3.91,3.91,0,0,1,.68,7.78l3.36,6.69a.41.41,0,0,1,0,.18.25.25,0,0,1-.24.24c-.13,0-.2-.07-.27-.2l-3.45-6.87h-5Zm0-7.34v6.85h5a3.42,3.42,0,1,0,0-6.85Z"/><path class="cls-5" d="M755.45,186.94l5.35,14.45a.54.54,0,0,1,0,.2.25.25,0,0,1-.27.24c-.15,0-.22-.07-.29-.27l-1.59-4.31h-7l-1.59,4.31c-.07.2-.13.27-.29.27a.25.25,0,0,1-.27-.24.54.54,0,0,1,0-.2L755,186.94a.26.26,0,0,1,.49,0Zm-.24.64-3.31,9.19h6.63Z"/><path class="cls-5" d="M764.63,201.66c-.2,0-.29-.11-.29-.22a.35.35,0,0,1,.07-.18l8.31-13.85H764.8a.22.22,0,0,1-.22-.22.22.22,0,0,1,.22-.24h8.29a.25.25,0,0,1,.26.24.36.36,0,0,1-.07.2L765,201.19h8.26a.23.23,0,0,1,.24.22.25.25,0,0,1-.24.24Z"/><path class="cls-5" d="M778.35,201.57a.27.27,0,1,1-.53,0V187a.27.27,0,0,1,.53,0Z"/><path class="cls-5" d="M783.59,201.66a.26.26,0,0,1-.27-.27V187a.27.27,0,0,1,.53,0v14.14H791a.23.23,0,0,1,.24.24.25.25,0,0,1-.24.24Z"/><path class="cls-6" d="M713.94,754l.06-2.4-4.21-6.24-.16-1.79-1.79-3.66L704,738.19l-2.18-3.2-2.42-2.34L694,732.5l-2.73.47-1.79-.7-.55-2.81h-4.13l-1.72-.16-.7-1.79-3-.31-1.87-1.95-.94-1.56-2.57-.47L672.84,722l-1.25-1.79L670,719.4l-3.59,2-3.12,3.35-1.64.94L660,724.49l-2.7-2.83-1.17-1.56-1.79-1.4-.31-2.42-3.82-2.73-4-1.33-1.51-.47-.87-.27-1.93-.32-1.85-.73-1.17.39-2.73-.39-1.87.55-1.07.06-.9-.26-1-1.44-1.33-3h-1.72l-3.43-.08-2.49-.94-3.66-3-1.79.08-2.49-2.49-2.11-1.33-2.81-2.18-1.87-.08-2.88-.39-1.33-1.48-1.64-.78-2.18-.94h-1.95l-1.4-.08-1.25-1.4a8.25,8.25,0,0,1-1.25-1.17,7.19,7.19,0,0,0-1.17-1.09L590,687l-3-.62-1-1.95-.62-1h-2.1l-1.79-1.25-1.64-.7-1.25-.23-1.95-3.43-.94-2-.94-1.25-1.25-.16h-1.25l-1-1.87-1.33-.08-.78-1.33-.31-1.33-1.72-.94.16-1.25-46.86-28.14a4.18,4.18,0,0,0-1.56-.08,13.41,13.41,0,0,0-1.87.94l-2.57.86-2.18.86-5.15.55-3.35.23-2.57.47-2.65-.23-2.18-1.25-1.87.16-1,.16-1.4-1.79-1.4-1.25L487.76,638l-2-.94-1.87-1-2.1-.08-1.09.62-2.88-.47-1.09-.16-1.72-.23L474.5,634l-.08-2.49-1.48-.47-4.13.08-3-1.33-4.44-1.25-2.88-.08-2.88-.39-1.95.08-4.05-2.57-3-2-.78-.47-1.09.86-2.26-.47-.86.7-3.2-4-.39-2.49-2.49-3-2.42-2.34-1.87-2.81.39-3.9L430.14,604l-2.49-1-1.79-1.4-.7-1.48-3.9.31-1.95-.94-2.18-2-.7-1.95-1.17-1.25-1.79-.16-2.18-.16v-1.4l-2.1.78-4.44-1.87-1.64-1.64-3.35.08-3.27-4.29-.23-2.81-4-.39L391.4,580l-1.33-.86-1.87-1.72-3.66-.08-2.42-.16-2.65-3.43-1.95-.23-.86-5.38-1.72-.31-3.2-.55L369.57,565l-.39-.94-1.87-4L364.5,560l-1.56-1.79-1.17.62-1.64-.86-1.87-2.18-1.87-.78-.78-1.33-1.33-1.4-.23-6.08-1.64-.16-1.17-4.13-3.2-2.65-.47-2.1-.86-.78-1.87.62.31-1.48-1.79-.86-1-2.73-1.79-.7.16-1.33-1.56-1.95-2-1.64.16-2.42-.08-2.65-1.87-1.4-.94.78-2-1.87.94-2.88.86-3.2-1.79-1.48-.55-1.4-1.48.94-.86-.86.55-2.18h-5.55l-1.57-.09-4.23.11L317,505.25l-1.2-2.06-.86-1.16a7.63,7.63,0,0,1-.79-1.42c0-.23-1.35-.94-1.35-.94l-1.52-.9-3-.94-2.36-1.08s-1.76-1.42-1.76-1.65-1.78-.77-1.78-.77l-1-1.29-1-1-1.2-1.71-1-.8-.47-2,28.89-107.16L324.4,333l27.44-42.41,16.22-42.41,94-16.84,55.3-16.84,77.34-1.66,76.16,47.64.1.69,1.28,8.47,2.1,15.16-1.87,6.63,3.91,2.25,3.38,14.65,5.33,3.9,1.86,5.13L683.71,322l4.12,11.58-.55,8.87,6.08-6.59,5.16,8.15-6.11-.64-5,5.41,9.14-.51,3.1,5.22-6.32,2.69,8.29,9.95-3.39,5.56,1,11.39-5.66,8.69,5.6,4.18-9.46,19.31,4.9,3.93-1.66,4.15,3.32,5-3.73,4.56,1.24,11.61-2.66,9.07-3.41,5.66,2,21.94,8.78.56.11,6.1,4.11.61.56,14.89,3,4,1.61,10.75-8.56-.21-2.48,4.43,8.06,7.41-.11,6.77,5.19,7-.46,5.73,3.22,5.8,8.49.11-1.31,6.12,12.92,11-3.55,4.3.6,6.3,5,.25.18,10.39-5,2.48,1.25,3.35L751.45,611,750.31,626l-4.57,2.12,8.61,11.62.11,9.13-3.55.32-1,5,5.93.28.43,10.21,4,.11.21,33.2-10,9.89-.69,6.62,6.06,3.91-1.62,5.16-6.82.32-.13,5.47-10.13,6.56-9,.54.86,7.2-1.72,4.55-13.09,6.27-.26.12Z"/><path class="cls-5" d="M779.82,599h6.72a.27.27,0,1,1,0,.53H772.17a.26.26,0,0,1-.26-.27v-5a4,4,0,1,1,7.91,0Zm-7.42,0h6.94v-4.84a3.47,3.47,0,0,0-6.94,0Z"/><path class="cls-5" d="M771.91,581.76l14.45-5.35a.53.53,0,0,1,.2,0,.25.25,0,0,1,.24.27c0,.15-.07.22-.27.29l-4.31,1.59v7l4.31,1.59c.2.07.27.13.27.29a.25.25,0,0,1-.24.27.53.53,0,0,1-.2,0l-14.45-5.35a.26.26,0,0,1,0-.49Zm.64.24,9.19,3.31v-6.63Z"/><path class="cls-5" d="M779.73,572h6.8a.27.27,0,1,1,0,.53H772.17a.26.26,0,0,1-.26-.27v-5.17a3.91,3.91,0,0,1,7.78-.68l6.69-3.36a.41.41,0,0,1,.18,0,.25.25,0,0,1,.24.24c0,.13-.07.2-.2.27l-6.87,3.45v5Zm-7.34,0h6.85v-5a3.42,3.42,0,1,0-6.85,0Z"/><path class="cls-5" d="M771.91,553.94l14.45-5.35a.53.53,0,0,1,.2,0,.25.25,0,0,1,.24.27c0,.15-.07.22-.27.29l-4.31,1.59v7l4.31,1.59c.2.07.27.13.27.29a.25.25,0,0,1-.24.27.53.53,0,0,1-.2,0l-14.45-5.35a.26.26,0,0,1,0-.49Zm.64.24,9.19,3.31v-6.63Z"/><path class="cls-5" d="M786.89,539.33c0,4-3.67,6-7.62,6s-7.62-2.17-7.62-6A5.18,5.18,0,0,1,774,535a.3.3,0,0,1,.18-.07.25.25,0,0,1,.24.27.26.26,0,0,1-.13.22,4.68,4.68,0,0,0-2.12,4c0,3.58,3.49,5.46,7.14,5.46s7.16-1.79,7.16-5.48a5.93,5.93,0,0,0-1.92-4.44h-4.07v4.18a.23.23,0,0,1-.24.24.23.23,0,0,1-.22-.24v-4.44a.22.22,0,0,1,.24-.24h4.24a.44.44,0,0,1,.31.11A6.24,6.24,0,0,1,786.89,539.33Z"/><path class="cls-5" d="M781.34,530H772a.27.27,0,0,1,0-.53h9.41c3.29,0,5-1.94,5-4.6s-1.7-4.6-5-4.6H772a.27.27,0,0,1,0-.53h9.35c3.62,0,5.54,2.21,5.54,5.13S785,530,781.34,530Z"/><path class="cls-5" d="M771.91,510.12l14.45-5.35a.54.54,0,0,1,.2,0,.25.25,0,0,1,.24.27c0,.15-.07.22-.27.29l-4.31,1.59v7l4.31,1.59c.2.07.27.13.27.29a.25.25,0,0,1-.24.27.53.53,0,0,1-.2,0l-14.45-5.35a.26.26,0,0,1,0-.49Zm.64.24,9.19,3.31V507Z"/><path class="cls-5" d="M780.48,497.15h6.05a.27.27,0,1,1,0,.53h-6.05l-8.24,4.57a.46.46,0,0,1-.24.09.25.25,0,0,1-.26-.27c0-.13.07-.2.2-.26l8-4.4-8-4.4c-.13-.07-.2-.13-.2-.26a.25.25,0,0,1,.26-.27.46.46,0,0,1,.24.09Z"/><path class="cls-7" d="M190.76,294.64h6.34l3.62-1.69,2.77-1.2s3.66-.83,4.06-.83h3.13c.91,0,1.36,1.81,2.94,0s3.57-.73,4.5-2.06,2.52-2,3.42-2.69A9.7,9.7,0,0,1,224.5,285a9.14,9.14,0,0,1,2.49,0c.91,0,1.79-1.79,2.82-.1a21.25,21.25,0,0,0,3.84,3.93,8.75,8.75,0,0,0,3.08.57c1.36-.09,2.72.31,3.85-.57a15.75,15.75,0,0,1,2.94-1.79c.91-.45.48-.68,1.6-1.59s-.86-1.36,1.91-2.31,12.71-4,12.71-4,6.37-2.56,7.63-3.32,9.47-7.5,9.47-7.5l2.9-4.93h5.82l6.77-5.67,4.35-6.34a17.88,17.88,0,0,0,1.38-4.23c.19-1.69-1.38-7.54-1.38-7.54h0V234l.91-6.34.49-3.81h0l2.88-7.19-4.28-7.11-8.12-8.12-5-7.61v-5.92s-1.59-22.41,0-25.37,2.92-8,5-9.3a14.7,14.7,0,0,0,3.77-3.81l-.85-6.67s-1.69-5.59-.85-7.28a53.32,53.32,0,0,0,2.11-6.34,33.45,33.45,0,0,0,8.2-5.5l2.9-9.3,3.07-4.65L328,94.46s18.48-11.85,19.74-13.55,9.85-7.61,9.85-7.61l9.64-5.5,7.53-5.5a22.32,22.32,0,0,1,5.54-6.77L383.68,53l7.19-2.11,5.5-4.23,5.5-4.23,6.41-5.07s1.12,0,6.23-8.88l5.12-8.88,3.71-3.38"/><path class="cls-7" d="M648.79,24.25a70.05,70.05,0,0,0-5,6.77c-.85,1.69-3,7.61-3.81,9.3s-8,6.77-8,6.77l-.82,3A60.11,60.11,0,0,0,629.81,56L629,62.31c-.85,6.34.42,3,1.27,7.61s0,0,.6,5.92,0,5.5,0,5.5v4.23L629,89.8l-3.81,2.54s.42,2.11-2.11,7.42c-.72,1.5-7.49,0-7.49,0h-5.62l-7.26,3.58-4.1,2.11-7.49-2.54-5.83-5.74-5.35-2.71-7.94.36-6.47-.36L558.76,89V83l-7.61-.85a36.22,36.22,0,0,1-9.83,1.69c-4.76,0-4.54.42-8.35.42s-2.54-.42-11.48.42-5.1,3.38-5.1,3.38-10.07,1.69-11.84,3.38-15.11,1.69-15.11,1.69-4.69.42-11,1.28-4.65-1.28-11.65-2.13-5.69-1.69-11.19-6.34l-6.61.42-6.08-1.69-6.77-3.38L429.34,78,424,74.57l-4.78-2.33-7.45-4.44L401.65,71l-6.34-3.17-6.6,2.54h-9.9l-11.59-2.54"/><path class="cls-5" d="M171,206.07a.26.26,0,0,1-.27-.27V191.62a.26.26,0,0,1,.27-.26h4.15c2.3,0,4,1.39,4,3.65a3.57,3.57,0,0,1-2.72,3.38,3.75,3.75,0,0,1,3.67,3.78c0,2.08-1.39,3.91-4.62,3.91Zm.27-14.23v6.41h3.54c2.25,0,3.8-1.41,3.8-3.27a3.13,3.13,0,0,0-3.42-3.14Zm0,6.87v6.87h4.26c2.67,0,4-1.44,4-3.45s-1.52-3.42-4.18-3.42Z"/><path class="cls-5" d="M183.47,198.71c0-3.93,2-7.62,5.94-7.62s5.94,3.69,5.94,7.62-2,7.62-5.94,7.62S183.47,202.64,183.47,198.71Zm11.36,0c0-3.62-1.77-7.14-5.41-7.14s-5.41,3.51-5.41,7.14,1.77,7.14,5.41,7.14S194.82,202.33,194.82,198.71Z"/><path class="cls-5" d="M199.82,206.07a.26.26,0,0,1-.27-.27V191.44a.27.27,0,0,1,.53,0v14.14h7.18a.23.23,0,0,1,.24.24.25.25,0,0,1-.24.24Z"/><path class="cls-5" d="M211.62,206a.27.27,0,0,1-.53,0V191.44a.27.27,0,0,1,.53,0Z"/><path class="cls-5" d="M225.54,191.39c0-.13.11-.22.26-.22a.26.26,0,0,1,.27.26.68.68,0,0,1,0,.18L220.9,206a.28.28,0,0,1-.53,0l-5.13-14.43a.68.68,0,0,1,0-.18.26.26,0,0,1,.27-.26c.15,0,.22.09.26.22l4.91,14Z"/><path class="cls-5" d="M230.18,206a.27.27,0,0,1-.53,0V191.44a.27.27,0,0,1,.53,0Z"/><path class="cls-5" d="M240,191.35l5.35,14.45a.53.53,0,0,1,0,.2.25.25,0,0,1-.27.24c-.15,0-.22-.07-.29-.27l-1.59-4.31h-7L234.71,206c-.07.2-.13.27-.29.27a.25.25,0,0,1-.27-.24.53.53,0,0,1,0-.2l5.35-14.45a.26.26,0,0,1,.49,0Zm-.24.64-3.31,9.19h6.63Z"/><path class="cls-7" d="M190.41,399.58l11.42,3.81,12.37,1.27,9.2,7.93,11.74,3.17,20.17,7,22.33,17.13V451.6s3.81,4.86,3.81,6.24v4.55l5.62,6s3.26-.63,2.94,3.17-1.59,6.34-1.59,7.61-.73,5.36-.73,5.36"/><path class="cls-7" d="M648.95,23.7s11.44-.35,12.8,2.36,8.6,0,8.6,0l4.08,2.71L680,38.69a105.91,105.91,0,0,1,11.56-5L696,39.59l1.35-.45c1.35-.45,4.06,2.26,5.41,3.16s.9,2.26,0,4.51-2.71,1.8-3.16,4.51,3.61,4.51,5.41,8.12h0l3.61,1.8c3.61,1.8,0,0,.45,3.61s-1.35,4.06-.9,9.92a19.57,19.57,0,0,1,2.26,4.51l1.35,5.41,6.77,5.41.45,1.8c.45,1.8-1.35,3.61-.9,5.41s2.26,3.16,4.51,3.61,3.61,1.8,6.53,3.82-2,3.85-6.53,3.85-7.57,7.34-7.57,7.34l-15.2,52.56,3.17,7v7.6l-7,6.33-19.6,64.53,20.24,24.21-22.39,6.64"/><path class="cls-4" d="M648.79,24.25a70.05,70.05,0,0,0-5,6.77c-.85,1.69-3,7.61-3.81,9.3s-8,6.77-8,6.77l-.82,3A60.11,60.11,0,0,0,629.81,56L629,62.31c-.85,6.34.42,3,1.27,7.61s0,0,.6,5.92,0,5.5,0,5.5v4.23L629,89.8l-3.81,2.54s.42,2.11-2.11,7.42c-.72,1.5-7.49,0-7.49,0h-5.62l-7.26,3.58-4.1,2.11-7.49-2.54-5.83-5.74-5.35-2.71-7.94.36-6.47-.36L558.76,89V83l-7.61-.85a36.22,36.22,0,0,1-9.83,1.69c-4.76,0-4.54.42-8.35.42s-2.54-.42-11.48.42-5.1,3.38-5.1,3.38-10.07,1.69-11.84,3.38-15.11,1.69-15.11,1.69-4.69.42-11,1.28-4.65-1.28-11.65-2.13-5.69-1.69-11.19-6.34l-6.61.42-6.08-1.69-6.77-3.38L429.34,78,424,74.57l-4.78-2.33-7.45-4.44L401.65,71l-6.34-3.17-6.6,2.54h-9.9l-11.59-2.54-.71.4-8.94,5.09s-8.58,5.92-9.85,7.61S328,94.46,328,94.46l-21.07,15.21-3.07,4.65-2.9,9.3a33.45,33.45,0,0,1-8.2,5.5,53.32,53.32,0,0,1-2.11,6.34c-.85,1.69.85,7.28.85,7.28l.85,6.67a14.7,14.7,0,0,1-3.77,3.81c-2.08,1.27-3.42,6.34-5,9.3s0,25.37,0,25.37v5.92l5,7.61,8.12,8.12,4.28,7.11-2.88,7.19h0l-.49,3.81-.91,6.34v5.57h0s1.57,5.85,1.38,7.54a17.88,17.88,0,0,1-1.38,4.23l-4.35,6.34-6.77,5.67h-5.82l-2.9,4.93s-8.2,6.73-9.47,7.5-7.63,3.32-7.63,3.32-9.93,3.08-12.71,4-.8,1.41-1.91,2.31-.69,1.13-1.6,1.59a15.75,15.75,0,0,0-2.94,1.79c-1.13.88-2.49.48-3.85.57a8.75,8.75,0,0,1-3.08-.57,21.25,21.25,0,0,1-3.84-3.93c-1-1.69-1.92.1-2.82.1a9.14,9.14,0,0,0-2.49,0,9.7,9.7,0,0,0-2.94,1.13c-.91.68-2.49,1.36-3.42,2.69s-2.92.25-4.5,2.06-2,0-2.94,0h-3.13c.56.9.05,19.88.05,19.88s6.54.43,4.94,4-5.49,4.24-4.94,6.94,0-1.73.56,2.71a71.07,71.07,0,0,0,2,9.44c.76,3.33-.21,3.33,0,6.66s1.32-2.78.21,3.33a90.37,90.37,0,0,1-2.83,11.23,12.68,12.68,0,0,1,5.92,2.9l3,2.53,12.21,7.94s-6.8,5.38-4.51,8.71,3.81,11.1,3.81,11.1l-4.62,7.07-8.45,10,.66.57,7.8,6.72,11.74,3.17,20.17,7,22.33,17.13V451.6s3.81,4.86,3.81,6.24v4.55l5.62,6s3.26-.63,2.94,3.17-1.59,6.34-1.59,7.61-.73,5.36-.73,5.36a22,22,0,0,0,10.37,5l-.15-.62-.33-1.38,28.89-107.16L324.4,333l27.44-42.41,16.22-42.41,94-16.84,55.3-16.84,77.34-1.66,76.16,47.64.1.69,1.28,8.47,2.1,15.16,2.05-.61,20.34-6-20.24-24.21,19.6-64.53,7-6.33v-7.6l-3.17-7,15.2-52.56s3.06-7.34,7.57-7.34,9.45-1.83,6.53-3.85-4.28-3.37-6.53-3.82-4.06-1.8-4.51-3.61,1.35-3.61.9-5.41l-.45-1.8-6.77-5.41-1.35-5.41a19.57,19.57,0,0,0-2.26-4.51c-.45-5.86,1.35-6.31.9-9.92s3.16-1.8-.45-3.61L705,59.44h0c-1.8-3.61-5.86-5.41-5.41-8.12s2.26-2.26,3.16-4.51,1.35-3.61,0-4.51-4.06-3.61-5.41-3.16l-1.35.45-4.51-5.86a105.91,105.91,0,0,0-11.56,5l-5.53-9.92-4.08-2.71s-7.25,2.71-8.6,0-12.8-2.36-12.8-2.36"/><path class="cls-8" d="M750.61,708.38l10-9.89-.21-33.2-4-.11L756,655l-5.93-.28,1-5,3.55-.32-.11-9.13-8.61-11.62,4.57-2.12,1.14-14.95-20.09-11.82-1.25-3.35,5-2.48L735,583.53l-5-.25-.6-6.3,3.55-4.3-12.92-11,1.31-6.12-8.49-.11-3.22-5.8.46-5.72-5.19-7,.11-6.77L697,522.82l2.48-4.43,8.56.21-1.61-10.75-3-4-.56-14.89-4.11-.61-.11-6.1-8.78-.56-2-21.94,3.41-5.66,2.66-9.07-1.24-11.61,3.73-4.56-3.32-5,1.66-4.15-4.9-3.93,9.46-19.31-5.6-4.18,5.66-8.69-1-11.39,3.39-5.56-8.29-9.95L699.8,354l-3.1-5.22-9.14.51,5-5.41,6.11.64-5.16-8.15L687.4,343l.55-8.87-4.12-11.58,3.22-4.63-1.86-5.13-5.33-3.9-3.38-14.65L672.57,292l1.87-6.63-.08-.56,2-.59,20.34-6-20.24-24.21,19.6-64.53,7-6.33v-7.6l-3.17-7,15.2-52.56s3.06-7.34,7.57-7.34,9.45-1.83,6.53-3.85-4.28-3.37-6.53-3.82-4.06-1.8-4.51-3.61,1.35-3.61.9-5.41l-.45-1.8-6.77-5.41-1.35-5.41a19.57,19.57,0,0,0-2.26-4.51c-.45-5.86,1.35-6.31.9-9.92s3.16-1.8-.45-3.61L705,59.44c-1.8-3.61-5.86-5.41-5.41-8.12s2.26-2.26,3.16-4.51,1.35-3.61,0-4.51-4.06-3.61-5.41-3.16l-1.35.45-4.51-5.86a105.93,105.93,0,0,0-11.56,5l-5.53-9.92-4.08-2.71s-7.25,2.71-8.6,0-12.8-2.36-12.8-2.36l-.16.55a70.05,70.05,0,0,0-5,6.77c-.85,1.69-3,7.61-3.81,9.3s-8,6.77-8,6.77l-.82,3A60.11,60.11,0,0,0,629.81,56L629,62.31c-.85,6.34.42,3,1.27,7.61s0,0,.6,5.92,0,5.5,0,5.5v4.23L629,89.8l-3.81,2.54s.42,2.11-2.11,7.42c-.72,1.5-7.49,0-7.49,0h-5.62l-7.26,3.58-4.1,2.11-7.49-2.54-5.83-5.74-5.35-2.71-7.94.36-6.47-.36L558.76,89V83l-7.61-.85a36.22,36.22,0,0,1-9.83,1.69c-4.76,0-4.54.42-8.35.42s-2.54-.42-11.48.42-5.1,3.38-5.1,3.38-10.07,1.69-11.84,3.38-15.11,1.69-15.11,1.69-4.69.42-11,1.28-4.65-1.28-11.65-2.13-5.69-1.69-11.19-6.34l-6.61.42-6.08-1.69-6.77-3.38L429.34,78,424,74.57l-4.78-2.33-7.45-4.44L401.65,71l-6.34-3.17-6.6,2.54h-9.9l-11.59-2.54-.71.4-8.94,5.09s-8.58,5.92-9.85,7.61S328,94.46,328,94.46l-21.07,15.21-3.07,4.65-2.9,9.3a33.45,33.45,0,0,1-8.2,5.5,53.31,53.31,0,0,1-2.11,6.34c-.85,1.69.85,7.28.85,7.28l.85,6.67a14.71,14.71,0,0,1-3.77,3.81c-2.08,1.27-3.42,6.34-5,9.3s0,25.37,0,25.37v5.92l5,7.61,8.12,8.12,4.28,7.11-2.88,7.19-.49,3.81-.91,6.34v5.57s1.57,5.85,1.38,7.54a17.88,17.88,0,0,1-1.38,4.23l-4.35,6.34-6.77,5.67h-5.82l-2.9,4.93s-8.2,6.73-9.47,7.5-7.63,3.32-7.63,3.32-9.93,3.08-12.71,4-.8,1.41-1.91,2.31-.69,1.13-1.6,1.59a15.75,15.75,0,0,0-2.94,1.79c-1.13.88-2.49.48-3.85.57a8.75,8.75,0,0,1-3.08-.57,21.25,21.25,0,0,1-3.84-3.93c-1-1.69-1.92.1-2.82.1a9.14,9.14,0,0,0-2.49,0,9.7,9.7,0,0,0-2.94,1.13c-.91.68-2.49,1.36-3.42,2.69s-2.92.25-4.5,2.06-2,0-2.94,0h-3.13c.56.9.05,19.88.05,19.88s6.54.43,4.94,4-5.49,4.24-4.94,6.94,0-1.73.55,2.71a71.09,71.09,0,0,0,2,9.44c.76,3.33-.21,3.33,0,6.66s1.32-2.78.21,3.33a90.37,90.37,0,0,1-2.83,11.23,12.68,12.68,0,0,1,5.92,2.9l3,2.53,12.21,7.94s-6.8,5.38-4.51,8.71,3.81,11.1,3.81,11.1l-4.62,7.07-8.45,10,.66.57,7.8,6.72,11.74,3.17,20.17,7,22.33,17.13V451.6s3.81,4.86,3.81,6.24v4.55l5.62,6s3.26-.63,2.94,3.17-1.59,6.34-1.59,7.61-.73,5.36-.73,5.36a22,22,0,0,0,10.36,5l.13.55,1,.8,1.2,1.71,1,1,1,1.29s1.78.54,1.78.77S306,497.3,306,497.3l2.36,1.08,3,.94,1.52.9s1.35.71,1.35.94a7.63,7.63,0,0,0,.79,1.42l.86,1.16,1.2,2.06,1.72,2.42,4.23-.11,1.57.09h5.55l-.55,2.18.86.86,1.48-.94.55,1.4,1.79,1.48-.86,3.2-.94,2.88,2,1.87.94-.78,1.87,1.4.08,2.65-.16,2.42,2,1.64,1.56,1.95-.16,1.33,1.79.7,1,2.73,1.79.86-.31,1.48,1.87-.62.86.78.47,2.1,3.2,2.65,1.17,4.13,1.64.16.23,6.08,1.33,1.4.78,1.33,1.87.78,1.87,2.18,1.64.86,1.17-.62,1.56,1.79,2.81.16,1.87,4,.39.94,2.18,2.26,3.2.55,1.72.31.86,5.38,1.95.23,2.65,3.43,2.42.16,3.66.08,1.87,1.72,1.33.86.86,2.42,4,.39.23,2.81,3.27,4.29,3.35-.08,1.64,1.64,4.44,1.87,2.1-.78v1.4l2.18.16,1.79.16,1.17,1.25.7,1.95,2.18,2,1.95.94,3.9-.31.7,1.48,1.79,1.4,2.49,1,1.48,1.72-.39,3.9,1.87,2.81,2.42,2.34,2.49,3,.39,2.49,3.2,4,.86-.7,2.26.47,1.09-.86.78.47,3,2,4.05,2.57,1.95-.08,2.88.39,2.88.08,4.44,1.25,3,1.33,4.13-.08,1.48.47.08,2.49.47,1.72,1.72.23,1.09.16,2.88.47,1.09-.62,2.11.08,1.87,1,2,.94,2.81,1.09,1.4,1.25,1.4,1.79,1-.16,1.87-.16,2.18,1.25,2.65.23,2.57-.47,3.35-.23,5.15-.55,2.18-.86,2.57-.86a13.41,13.41,0,0,1,1.87-.94,4.18,4.18,0,0,1,1.56.08l46.86,28.14-.16,1.25,1.72.94.31,1.33L570,673l1.33.08,1,1.87h1.25l1.25.16.94,1.25.94,2,1.95,3.43,1.25.23,1.64.7,1.79,1.25h2.1l.62,1,1,1.95,3,.62,2.65,1.95a7.19,7.19,0,0,1,1.17,1.09,8.25,8.25,0,0,0,1.25,1.17l1.25,1.4,1.4.08h1.95l2.18.94,1.64.78,1.33,1.48,2.88.39,1.87.08,2.81,2.18,2.11,1.33,2.49,2.49,1.79-.08,3.66,3,2.49.94,3.43.08h1.72l1.33,3,1,1.44.9.26,1.07-.06,1.87-.55,2.73.39,1.17-.39,1.85.73L644,712l.87.27,1.51.47,4,1.33,3.82,2.73.31,2.42,1.79,1.4,1.17,1.56,2.7,2.83,1.58,1.23,1.64-.94,3.12-3.35,3.59-2,1.64.78,1.25,1.79,1.25,1.25,2.57.47.94,1.56,1.87,1.95,3,.31.7,1.79L685,730h4.13l.55,2.81,1.79.7,2.73-.47,5.38.16,2.42,2.34,2.18,3.2,3.82,1.72,1.79,3.66.16,1.79,4.21,6.24-.06,2.4v.56l.26-.12,13.09-6.27,1.72-4.55-.86-7.2,9-.54,10.13-6.56.13-5.47,6.82-.32,1.62-5.16L749.92,715ZM705.8,60.94Z"/><polyline class="cls-7" points="680.96 831.86 681.35 828.36 682.52 826.95 684.31 825.32 686.03 824.69 688.21 825.16 692.34 822.82 694.99 820.88 697.01 818.23 699.74 816.59 701.69 816.51 702.7 815.03 702.39 813.71 700.28 812.46 699.35 811.22 700.6 808.8 702.23 808.41 703.95 807.32 703.48 806 701.92 804.83 701.84 802.41 703.48 801.48 705.5 801.55 706.91 800 707.38 797.58 705.19 795.32 704.34 793.38 705.19 792.91 707.22 793.53 709.4 792.67 712.75 789.4 712.36 788.7 709.87 788.78 709.56 787.45 710.73 785.43 711.35 783.79 713.22 782.7 715.09 784.03 716.18 784.8 716.96 784.41 717.04 780.44 717.04 778.96 718.2 778.65 719.92 779.9 720.46 780.75 721.87 780.6 722.41 778.96 722.49 777.17 723.11 776.16 724.83 776.31 725.06 774.75 725.76 772.57 724.9 771.17 726.77 765.72 723.58 761.9 721.09 760.11 717.42 756.91 714.78 754.19"/><path class="cls-7" d="M689.09,457.15l1.25,7.48,1.77-1.58,1.48.47,1,2.42,1.79.93,1.87.31,1.56.62,2.57-.86,2.57,2.34,2-2,1.56.86,1.79-1.17.47-1.95,2.34.23.78-1.17,1.71.78L718,465l1.95-.55.7,2.26,1.25,1.17.47,2.42,1.09,1.4h1.64l.93.47,2-.93,3.27,1.79h3.43l2.34.47,2.49.55.55,1.25,1.17.86,2,.55,2.49-.47,1.79-.86,1.87,1.56,1.64.7,1.79.23,2.18-1.64v-.78l4.75,1.09,1-.23,3.27,1,3.27-.31,2.1-.08,2.8-.78,1.56.93,1.64.47,4.13,1.56,1.48-1.09,1.09,1.64,1.09,2.18,2.26-.08,2.57-1.17.78-2.34h1.4l1.79-.86L795,478l2.1-.7v-1.48l2.65,2,1.95.47,3-1.4,1.4-1.64,2.65-1.79.93-2,1.64-2.49,1.17-3.58,1.32-.93,2.65-1.48,2.1.31,3.82-.7.93,1.87,1.17,3.19L825,471l1.48,1.4,3.43,2.8,1.95,1.17,2.18.93,1.48-.16.86,2.34,2.42,1.4,3.19.47h3.19l1.09-.62,2.26.62,2.1-.47,1.71.39,2.34.47,2.49-.78.86,1,1.79.08,1.87-1,1.64.39,3.58-.08,1.95,3.12,3.51,4.83.62,1.4h3.9l.62,3.35-.39,3.43-.7,1.48.31,3.35,1.64,3.19,1.87,1.25.86,1.4,2.18,1.56.86,1.32h1.32l1.32,2.65.55,3.51v6.15l-2.65,3.9-.7,2.34-.78,3.51.08,2.18,1.09,1-.08,2.1.23,2.18.62,1.87,1.32,2.18-.93,2.34-.23,1.25,2,1.4v4.21l.93,1.79v3.58h2.88l1.71,1.09V562l1.56,1.56v1.64l-1.79.62.62,1.48,1.17,1.64-.86,1.32L892.41,572l-.08,1.64-.39,1.4,1.25,1.09,1.25,2.42,1.09.62v3.19l-1.32,1.79-1,2.57-.86,2.57v2.26l.78,2.18.31,1.87.7,2.1-.78,2.18.08,1.95,2.57,1.09,1.56,1.71.93,1.64.7,2.8.39,1.25h1.48l-.47,2,.47,2.42.47,1.56-1.32,3.58.7,2,.62,2.8-.7,3,.7,1.87.86,2.49,1.56,1.09,2,.47,2.88,2.34,2.18-3.27,2.57,1.48,2.73,1.79,1.09,1.17,1.95-.47,1.71-1.4,2.1.08,1.17-.39,1.17.39,3-2,2.8,2.26,2-.7,1.64-1,1.87-.86,2.65.08,2.1.31,1.17-.39.55-3,1.32-1.32,1.71-1.25,1.17.62,1.64.16,1.95-2.26,1.4.86,2-2,1.64.16.86-.62,1.95.7,1.71-.39,1.56-.93v-1.48l2.34-2.26,1.56,1.25,1.71.39.78,1.25.78.62,1.71-.86,2.1,1.4v1.56l2.26-.23,2.57,1.25,1.71.62,2.49,1.09,1.32.39.47,1.09,1.09,2.49.7,1.79h.93l.7,1.4,1.4,1.17,2.49,1.64,1.4-.39,2.18,1.32,1.48,2.34v2.1l-4.13,4-1.32,2-.08,2,1.25,2.42.08,4.6,1.48,2.57,1.79,1.32,1.32,3.27.62,2.88v1.64l-1.56,3-1.09,2.42-2.57,3.43-1,3.35.23,3,.55,3.74-.08,5.77-.78,4.28-2.73,2.88-2.34,5-1,4.44L981.85,722l-1.17,8.1-.31,3.27.23,2.49,1.64,2.49,1.09,2.57-1.25,2.1-2.88,3.12L978,750.37,976.94,754,975.3,756l-1.79,1.87-1.95,2.26-2,2.26-2.1,3.9-1.25,1.17-.08,1.56,2,2.26-.31,4,.16,3.58v3l.31,2.73.55,1.95-1,.47-2-.62h-1.87l-1.32.62.31,2.88,1.71,3.35.16,3.51,3.43,5-1.87,4-.62,1.87-.23,1.64.08,3,.7.93-.23,1.25-.78.7h-3.12L960.66,816l-.31,1.87,1.64,2.65.7,3.35.39,2.65-1.48,1.71-1.17,1.95,1.09,2.49,3.51,2.42-1.48,2.26-1.95,1.25L960,840.12l.55,1.64,1.71,1.64-.47,2.18-2.49,3-.86,2.57-.23,2.88-1.17,3.19-2.88,2.65-2.65,2-2,2.26-.47,3.27,1.17,1.64.7,3.19-1.17,2.26-1.56,2.26h-1.32l-2.42-1.56-3.12.62L937.83,878l-.16,1.79-.08,2.73-.08,2.18-.62,1.87-1.71.47H932.3l-3,.47-2,1.48-3.35,3-2.1,1.71-.31,3.66,1.17,2.34-.16,1.48s-1.87.7-2.49.86-3.74.62-3.74.62L913,900.19l-2.8.78-1.25.93-5.22.31-3.82,1.95-2.65,2.8-1.09,4.67.16,2.49-.62.93H892.8l-2.8-.62-1.79.62-1,2.26.31,1.32-.16,1.32h-1.48l-1.32-.39-1.48.86-.23,2.26,2.8,3.74.7,1.95-1.48,1.56-1,.62,1.25,4.05-1.48,1.48-1.79,1.64-1.95.62-2.34.86-2.18,2.73-1.25,2.18-1.17.78h-3.35l-3.43-.86-1.48-2.18L862.88,940l-1.71-4-6.47.39-3.12-1.32-3.19-2.1-5.3-.39-3.35,1.17-6.15,4.44-3.9,2.73-2.57,2.73-1.4,4.67-3.35,3.82-2.8,3.51h-2.73l-3.9-3.43-1.87-5-5.53-3.9-8.41,1.87-2.88,1.4-.93,1.17-.23,1.48-1.71.47-4.13-2.8-3.12-3.12L780.61,942h-2.73l-9,5.84-8.26.31-5-1.09-5.22-2.49-3-2.34-3.12-.16-3-.08-3,.93-1.87,1.09-3,.55-4.21-1.25-2-1.4-2.88-1.79-2.49-1.25-3.19-1.4-.86-1.4-1.87-1.4-2.8-.16-3.51.39-3.27.16-2.65-3-3-2.57-2.65-.47-3.82.31-3-.39-2.49-.31-5.38.86-4.44.78-3-.23-3.19-1-1.87-.93-2.34,1.17-4.52,1-3.43.47-2.73.31-3.51-1-2.18-.16L649.65,931l-1.47,1-2.54.16H643l-.23-1.17,1.13-1.64v-2l-.59-2.42-2.57-1L639,922.47l-.86-2.1,1.32-3.82,2.1-.78,3-.16,2.1-.23v-6.62l1.49-.08,1,.16.93,1.95.93-1.17s.23-1.56,0-1.64a14.8,14.8,0,0,1-1.56-1.71l.62-1.4,3,.62.55-1.48-2.42-4.13v-1.64l1.4.47,4-.93,4-2.34.7-2.73,2.8.93,1-.55a9.26,9.26,0,0,0-.16-1.95c-.16-.23-.7-2.8-.7-2.8l.86-.78L668,887l.23-1.4-.7-1.64.86-.7,1.56.7,1.64-1.09-.55-1.64-.16-4.75-.39-1.87-.23-1.56.86-.08.93.86,1.56.55,1.32-.31.7-1.17-1-1.64.31-1.09.31-1.95-.31-2.1-.55-1.09-1.25-.93.31-2.1.93-2.18-1.71-1.09-.31-1.4,1.09-.62,2,.16.93-.55-1.87-1.79L673,852.2l.39-2.49s1.17-1.17,1.4-1.17a18.53,18.53,0,0,0,2.1-.93l1.48-2.65.08-1.87-1.09-1.64.23-2.57,2.57-.78,2.26-1.87-.23-1.4-1.56-.7s-1.48-.93-1.48-1.17a8.11,8.11,0,0,0-1.09-1.48l1.09-.31,1.79.7"/><polyline class="cls-9" points="298.06 489.55 326.48 380.39 324.4 332.99 350.33 292.92 368.06 248.17 462.03 231.33 517.33 214.49 594.67 212.83 670.23 260.09 674.32 284.79"/><polyline class="cls-10" points="461.42 628.57 461.42 348.75 687.44 348.75"/><path class="cls-11" d="M486.31,342.12h-1.25v-8l-1.89,0v-.9l3.14-.34Z"/><path class="cls-11" d="M492.55,341.27a1.77,1.77,0,0,0,1.46-.69,3.25,3.25,0,0,0,.55-2.05v-.42a2,2,0,0,1-.78.68,2.31,2.31,0,0,1-1,.23,2.8,2.8,0,0,1-2.13-.83,3.61,3.61,0,0,1,0-4.56,2.68,2.68,0,0,1,2-.89,3,3,0,0,1,2.28.9,3.79,3.79,0,0,1,.83,2.66v2.2a3.9,3.9,0,0,1-.9,2.77,3.08,3.08,0,0,1-2.36,1,5.48,5.48,0,0,1-1-.09,3.57,3.57,0,0,1-.9-.28l.19-1a2.85,2.85,0,0,0,.78.28A4.88,4.88,0,0,0,492.55,341.27Zm.2-3.23a2.08,2.08,0,0,0,1.15-.3,1.73,1.73,0,0,0,.66-.76v-.8a3,3,0,0,0-.47-1.83,1.6,1.6,0,0,0-1.36-.62,1.44,1.44,0,0,0-1.17.61,2.83,2.83,0,0,0,0,3.11A1.45,1.45,0,0,0,492.75,338Z"/><path class="cls-11" d="M503.23,338.6a4.14,4.14,0,0,1-.78,2.71,2.64,2.64,0,0,1-2.15.94,2.67,2.67,0,0,1-2.16-.95,4.11,4.11,0,0,1-.79-2.71v-2.19a4.13,4.13,0,0,1,.79-2.71,2.91,2.91,0,0,1,4.3,0,4.14,4.14,0,0,1,.79,2.71ZM502,336.14a3.09,3.09,0,0,0-.44-1.8,1.61,1.61,0,0,0-2.52,0,3.11,3.11,0,0,0-.43,1.8v2.71a3.1,3.1,0,0,0,.44,1.81,1.46,1.46,0,0,0,1.26.61,1.44,1.44,0,0,0,1.25-.61,3.16,3.16,0,0,0,.43-1.81Z"/><path class="cls-11" d="M510.69,333.86a13,13,0,0,0-2.26,3.53,15.77,15.77,0,0,0-.85,3.73l-.1,1h-1.25l.1-1a13.58,13.58,0,0,1,1-3.9,15,15,0,0,1,2.1-3.36h-5v-1h6.25Z"/><path class="cls-11" d="M516.89,338.41v3.71h-1.25v-9.24h3.54a3.25,3.25,0,0,1,2.3.76,2.88,2.88,0,0,1,0,4,3.28,3.28,0,0,1-2.3.75Zm0-1h2.29a1.68,1.68,0,0,0,1.87-1.77,1.83,1.83,0,0,0-.47-1.28,1.8,1.8,0,0,0-1.4-.51h-2.29Z"/><path class="cls-11" d="M525.22,338.11v4H524v-9.24h3.35a3.51,3.51,0,0,1,2.32.67,2.41,2.41,0,0,1,.8,2,2.1,2.1,0,0,1-.37,1.24,2.52,2.52,0,0,1-1.08.84,1.9,1.9,0,0,1,1.1.8,2.64,2.64,0,0,1,.33,1.37v.87a2.94,2.94,0,0,0,.09.77,1.17,1.17,0,0,0,.33.56v.15h-1.29a1,1,0,0,1-.32-.63,5.2,5.2,0,0,1-.07-.86v-.84a1.67,1.67,0,0,0-.44-1.21,1.55,1.55,0,0,0-1.17-.46Zm0-1h2a2.33,2.33,0,0,0,1.53-.4,1.53,1.53,0,0,0,.47-1.23,1.58,1.58,0,0,0-.45-1.21,2,2,0,0,0-1.41-.43h-2.1Z"/><path class="cls-11" d="M539.58,338.32a3.94,3.94,0,0,1-1.05,2.81,3.57,3.57,0,0,1-2.73,1.12,3.39,3.39,0,0,1-2.63-1.12,4,4,0,0,1-1-2.81v-1.64a4,4,0,0,1,1-2.81,3.38,3.38,0,0,1,2.63-1.12,3.56,3.56,0,0,1,2.73,1.12,4,4,0,0,1,1.05,2.81Zm-1.25-1.66a3.12,3.12,0,0,0-.69-2.08,2.28,2.28,0,0,0-1.84-.81,2.12,2.12,0,0,0-1.74.81,3.23,3.23,0,0,0-.65,2.08v1.66a3.25,3.25,0,0,0,.65,2.09,2.12,2.12,0,0,0,1.74.81,2.29,2.29,0,0,0,1.84-.81,3.14,3.14,0,0,0,.68-2.1Z"/><path class="cls-11" d="M542.69,338.41v3.71h-1.25v-9.24H545a3.25,3.25,0,0,1,2.3.76,2.88,2.88,0,0,1,0,4,3.28,3.28,0,0,1-2.3.75Zm0-1H545a1.68,1.68,0,0,0,1.87-1.77,1.83,1.83,0,0,0-.47-1.28,1.8,1.8,0,0,0-1.4-.51h-2.29Z"/><path class="cls-11" d="M556.77,338.32a3.94,3.94,0,0,1-1.05,2.81,3.57,3.57,0,0,1-2.73,1.12,3.39,3.39,0,0,1-2.63-1.12,4,4,0,0,1-1-2.81v-1.64a4,4,0,0,1,1-2.81,3.38,3.38,0,0,1,2.63-1.12,3.56,3.56,0,0,1,2.73,1.12,4,4,0,0,1,1.05,2.81Zm-1.25-1.66a3.12,3.12,0,0,0-.69-2.08,2.28,2.28,0,0,0-1.84-.81,2.12,2.12,0,0,0-1.74.81,3.23,3.23,0,0,0-.65,2.08v1.66a3.25,3.25,0,0,0,.65,2.09,2.12,2.12,0,0,0,1.74.81,2.29,2.29,0,0,0,1.84-.81,3.14,3.14,0,0,0,.68-2.1Z"/><path class="cls-11" d="M563.67,339.79a1.36,1.36,0,0,0-.48-1.06,4,4,0,0,0-1.69-.72,5.59,5.59,0,0,1-2.29-1,2.13,2.13,0,0,1-.82-1.71,2.24,2.24,0,0,1,.89-1.81,3.5,3.5,0,0,1,2.29-.73,3.42,3.42,0,0,1,2.42.83,2.45,2.45,0,0,1,.87,1.93v0h-1.19a1.72,1.72,0,0,0-.54-1.31,2.63,2.63,0,0,0-3-.08,1.38,1.38,0,0,0-.5,1.1,1.21,1.21,0,0,0,.54,1,5.11,5.11,0,0,0,1.75.71,5,5,0,0,1,2.22,1.07,2.28,2.28,0,0,1,.76,1.75,2.13,2.13,0,0,1-.91,1.8,3.9,3.9,0,0,1-2.39.68,4.13,4.13,0,0,1-2.45-.75,2.27,2.27,0,0,1-1-2v0h1.19a1.55,1.55,0,0,0,.65,1.35,2.72,2.72,0,0,0,1.62.46,2.52,2.52,0,0,0,1.5-.4A1.26,1.26,0,0,0,563.67,339.79Z"/><path class="cls-11" d="M568.06,342.12H566.8v-9.24h1.26Z"/><path class="cls-11" d="M576.49,333.86h-3v8.26h-1.25v-8.26h-3v-1h7.19Z"/><path class="cls-11" d="M579.17,342.12h-1.26v-9.24h1.26Z"/><path class="cls-11" d="M588.52,338.32a3.94,3.94,0,0,1-1.05,2.81,3.57,3.57,0,0,1-2.73,1.12,3.39,3.39,0,0,1-2.63-1.12,4,4,0,0,1-1-2.81v-1.64a4,4,0,0,1,1-2.81,3.38,3.38,0,0,1,2.63-1.12,3.56,3.56,0,0,1,2.73,1.12,4,4,0,0,1,1.05,2.81Zm-1.25-1.66a3.12,3.12,0,0,0-.69-2.08,2.28,2.28,0,0,0-1.84-.81,2.12,2.12,0,0,0-1.74.81,3.23,3.23,0,0,0-.65,2.08v1.66a3.25,3.25,0,0,0,.65,2.09,2.12,2.12,0,0,0,1.74.81,2.29,2.29,0,0,0,1.84-.81,3.14,3.14,0,0,0,.68-2.1Z"/><path class="cls-11" d="M597.37,342.12h-1.25L591.67,335h0v7.13h-1.25v-9.24h1.25l4.45,7.13h0v-7.12h1.25Z"/><path class="cls-12" d="M531.51,454.05l-1,.71L526,448.13l-1.55,1.09-.51-.75,2.4-2.05Z"/><path class="cls-12" d="M535.43,443.11a2.05,2.05,0,0,1,.38,1.27,2.43,2.43,0,0,1-.45,1.29,2.76,2.76,0,0,1,1.55,0,2.14,2.14,0,0,1,1.17.87,2.37,2.37,0,0,1,.41,2.09,3.85,3.85,0,0,1-3.6,2.46,2.38,2.38,0,0,1-1.79-1.15,2.16,2.16,0,0,1-.39-1.4,2.7,2.7,0,0,1,.55-1.44,2.34,2.34,0,0,1-1.35-.06,2.11,2.11,0,0,1-1-.82,2.37,2.37,0,0,1-.44-2,2.9,2.9,0,0,1,1.27-1.67,2.94,2.94,0,0,1,2-.57A2.35,2.35,0,0,1,535.43,443.11Zm-1,.73a1.59,1.59,0,0,0-1-.7,1.44,1.44,0,0,0-1.15.24,1.42,1.42,0,0,0-.65,1,1.6,1.6,0,0,0,.31,1.18,1.54,1.54,0,0,0,1,.7A1.6,1.6,0,0,0,534.7,445,1.54,1.54,0,0,0,534.41,443.83Zm2.63,3.38a1.67,1.67,0,0,0-1.12-.75,1.75,1.75,0,0,0-1.32.31,1.71,1.71,0,0,0-.77,1.12,1.69,1.69,0,0,0,.3,1.3,1.6,1.6,0,0,0,1.09.75,2,2,0,0,0,2.11-1.44A1.59,1.59,0,0,0,537,447.22Z"/><path class="cls-12" d="M542.23,445.7a1.78,1.78,0,0,0,.82-1.39,3.26,3.26,0,0,0-.7-2l-.24-.35a2,2,0,0,1-.26,1,2.31,2.31,0,0,1-.73.78,2.8,2.8,0,0,1-2.22.52,3.62,3.62,0,0,1-2.53-3.79,2.68,2.68,0,0,1,1.17-1.88,3,3,0,0,1,2.39-.54,3.79,3.79,0,0,1,2.19,1.73l1.24,1.82a3.91,3.91,0,0,1,.82,2.8,3.08,3.08,0,0,1-1.4,2.13,5.38,5.38,0,0,1-.87.48,3.56,3.56,0,0,1-.91.27l-.38-.9a2.83,2.83,0,0,0,.8-.21A4.9,4.9,0,0,0,542.23,445.7Zm-1.66-2.78a2.08,2.08,0,0,0,.78-.9,1.73,1.73,0,0,0,.12-1l-.45-.66a3,3,0,0,0-1.42-1.25,1.59,1.59,0,0,0-1.47.25,1.44,1.44,0,0,0-.62,1.16,2.45,2.45,0,0,0,.49,1.57,2.48,2.48,0,0,0,1.24,1A1.45,1.45,0,0,0,540.57,442.92Z"/><path class="cls-12" d="M549.06,438.3l1.05-.72.55.81-1.05.72,1.2,1.76-1,.7-1.2-1.76-3.43,2.34-.4-.58-.25-7.59,1.09-.75Zm-3.36,2.29L548,439l-2.45-3.58,0,0,.08.33Z"/><path class="cls-12" d="M554.67,433.75l2.09,3.06-1,.71-5.21-7.63,2.92-2a3.24,3.24,0,0,1,2.33-.67,2.88,2.88,0,0,1,2.27,3.32,3.27,3.27,0,0,1-1.47,1.92Zm-.55-.81,1.89-1.29a1.83,1.83,0,0,0-.57-3.31,1.8,1.8,0,0,0-1.45.37L552.11,430Z"/><path class="cls-12" d="M561.38,428.8l2.26,3.31-1,.71-5.21-7.63,2.76-1.89a3.51,3.51,0,0,1,2.29-.75,2.41,2.41,0,0,1,1.76,1.16,2.09,2.09,0,0,1,.39,1.23,2.52,2.52,0,0,1-.42,1.3,1.9,1.9,0,0,1,1.36,0,2.64,2.64,0,0,1,1,.95l.49.72a3,3,0,0,0,.51.59,1.16,1.16,0,0,0,.59.27l.09.13-1.06.73a1,1,0,0,1-.62-.34,5.22,5.22,0,0,1-.54-.67l-.48-.7a1.67,1.67,0,0,0-1-.75,1.55,1.55,0,0,0-1.23.28Zm-.55-.81,1.63-1.11a2.33,2.33,0,0,0,1-1.19,1.53,1.53,0,0,0-.31-1.28,1.58,1.58,0,0,0-1.06-.74,2,2,0,0,0-1.41.44L559,425.3Z"/><path class="cls-12" d="M573.36,420.88a3.94,3.94,0,0,1,.72,2.91,3.57,3.57,0,0,1-1.62,2.46,3.38,3.38,0,0,1-2.8.56,4,4,0,0,1-2.42-1.75l-.93-1.36a4,4,0,0,1-.75-2.89,3.38,3.38,0,0,1,1.54-2.41,3.57,3.57,0,0,1,2.88-.61,4,4,0,0,1,2.46,1.73Zm-2-.66a3.11,3.11,0,0,0-1.74-1.33,2.29,2.29,0,0,0-2,.37,2.12,2.12,0,0,0-1,1.65,3.23,3.23,0,0,0,.64,2.09l.93,1.37a3.24,3.24,0,0,0,1.72,1.36,2.12,2.12,0,0,0,1.9-.31,2.29,2.29,0,0,0,1.07-1.71,3.14,3.14,0,0,0-.62-2.12Z"/><path class="cls-12" d="M576,419.19l2.09,3.06-1,.71-5.21-7.63,2.92-2a3.24,3.24,0,0,1,2.33-.67,2.88,2.88,0,0,1,2.27,3.32,3.27,3.27,0,0,1-1.47,1.92Zm-.56-.81,1.89-1.29a1.79,1.79,0,1,0-2-2.95l-1.89,1.29Z"/><path class="cls-12" d="M587.55,411.19a3.93,3.93,0,0,1,.72,2.91,3.57,3.57,0,0,1-1.62,2.46,3.38,3.38,0,0,1-2.8.56,4,4,0,0,1-2.42-1.75L580.5,414a4,4,0,0,1-.75-2.89,3.38,3.38,0,0,1,1.54-2.41,3.57,3.57,0,0,1,2.88-.61,4,4,0,0,1,2.46,1.73Zm-2-.66a3.12,3.12,0,0,0-1.74-1.33,2.29,2.29,0,0,0-2,.37,2.12,2.12,0,0,0-1,1.65,3.23,3.23,0,0,0,.64,2.09l.93,1.37a3.24,3.24,0,0,0,1.72,1.36,2.11,2.11,0,0,0,1.9-.31,2.29,2.29,0,0,0,1.07-1.71,3.14,3.14,0,0,0-.62-2.12Z"/><path class="cls-12" d="M594.08,408.51a1.36,1.36,0,0,0-1-.6,4,4,0,0,0-1.8.36,5.58,5.58,0,0,1-2.47.44,2.13,2.13,0,0,1-1.64-1,2.25,2.25,0,0,1-.29-2,3.51,3.51,0,0,1,1.49-1.89,3.42,3.42,0,0,1,2.46-.68,2.45,2.45,0,0,1,1.8,1.1v0l-1,.67a1.72,1.72,0,0,0-1.18-.78,2.63,2.63,0,0,0-2.5,1.61,1.38,1.38,0,0,0,.21,1.19,1.22,1.22,0,0,0,1,.53,5.12,5.12,0,0,0,1.85-.4,5,5,0,0,1,2.44-.37,2.28,2.28,0,0,1,1.61,1,2.13,2.13,0,0,1,.26,2,3.9,3.9,0,0,1-1.59,1.91,4.12,4.12,0,0,1-2.45.76,2.26,2.26,0,0,1-2-1.08v0l1-.67a1.55,1.55,0,0,0,1.3.75,2.72,2.72,0,0,0,1.6-.53,2.52,2.52,0,0,0,1-1.17A1.26,1.26,0,0,0,594.08,408.51Z"/><path class="cls-12" d="M599,408l-1,.71L592.77,401l1-.71Z"/><path class="cls-12" d="M601.32,396.38l-2.45,1.68,4.66,6.82-1,.71-4.66-6.82-2.45,1.67-.55-.81,5.93-4.05Z"/><path class="cls-12" d="M608.19,401.69l-1,.71-5.21-7.63,1-.71Z"/><path class="cls-12" d="M613.77,393.28a3.94,3.94,0,0,1,.72,2.91,3.57,3.57,0,0,1-1.62,2.46,3.39,3.39,0,0,1-2.8.56,4,4,0,0,1-2.42-1.75l-.93-1.36a4,4,0,0,1-.75-2.89,3.37,3.37,0,0,1,1.54-2.41,3.57,3.57,0,0,1,2.88-.61,4,4,0,0,1,2.46,1.73Zm-2-.66a3.12,3.12,0,0,0-1.74-1.33,2.29,2.29,0,0,0-2,.37,2.12,2.12,0,0,0-1,1.65,3.23,3.23,0,0,0,.64,2.09l.93,1.37a3.24,3.24,0,0,0,1.72,1.36,2.12,2.12,0,0,0,1.9-.31,2.29,2.29,0,0,0,1.07-1.71,3.14,3.14,0,0,0-.62-2.12Z"/><path class="cls-12" d="M623.22,391.42l-1,.71-7.7-3.39,0,0,4,5.89-1,.7-5.21-7.63,1-.71,7.7,3.38,0,0-4-5.88,1-.71Z"/><line class="cls-13" x1="689.31" y1="349.98" x2="376.66" y2="568.15"/><line class="cls-14" x1="305.6" y1="457.83" x2="687.44" y2="457.83"/><path class="cls-15" d="M702.28,267.39V260h2.42a2.94,2.94,0,0,1,1.82.5,1.78,1.78,0,0,1,.66,1.51,1.37,1.37,0,0,1-.32.88,1.87,1.87,0,0,1-.83.58,1.72,1.72,0,0,1,1.06.66,1.94,1.94,0,0,1,.38,1.2,1.89,1.89,0,0,1-.66,1.56,2.75,2.75,0,0,1-1.79.54Zm1-4.27h1.63a1.33,1.33,0,0,0,.91-.31,1.24,1.24,0,0,0,0-1.76,1.74,1.74,0,0,0-1.09-.3h-1.42Zm0,.79v2.69H705a1.56,1.56,0,0,0,1.07-.34,1.21,1.21,0,0,0,.38-1,1.52,1.52,0,0,0-.32-1,1.22,1.22,0,0,0-1-.37Z"/><path class="cls-15" d="M712.27,266.57a1.87,1.87,0,0,1-.67.68,1.83,1.83,0,0,1-.94.24,1.77,1.77,0,0,1-1.41-.58,2.68,2.68,0,0,1-.5-1.79v-3.25h1v3.26a2,2,0,0,0,.26,1.21,1,1,0,0,0,.81.33,1.66,1.66,0,0,0,.88-.22,1.36,1.36,0,0,0,.53-.61v-4h1v5.51h-.9Z"/><path class="cls-15" d="M717.91,265.92a.68.68,0,0,0-.25-.55,2.37,2.37,0,0,0-1-.37,4,4,0,0,1-1.51-.59,1.2,1.2,0,0,1-.51-1,1.44,1.44,0,0,1,.57-1.14,2.6,2.6,0,0,1,3,0,1.46,1.46,0,0,1,.54,1.2v0h-1a.88.88,0,0,0-.3-.65,1.12,1.12,0,0,0-.8-.29,1.16,1.16,0,0,0-.79.23.73.73,0,0,0-.26.57.63.63,0,0,0,.23.51,2.39,2.39,0,0,0,.93.34,4,4,0,0,1,1.55.61,1.23,1.23,0,0,1,.51,1,1.43,1.43,0,0,1-.59,1.19,2.48,2.48,0,0,1-1.55.45,2.42,2.42,0,0,1-1.66-.54,1.52,1.52,0,0,1-.58-1.25v0h1a.92.92,0,0,0,.4.78,1.54,1.54,0,0,0,.87.25,1.42,1.42,0,0,0,.84-.22A.67.67,0,0,0,717.91,265.92Z"/><path class="cls-15" d="M722.4,266.71a1.36,1.36,0,0,0,.88-.31.94.94,0,0,0,.38-.76h.9v0a1.56,1.56,0,0,1-.63,1.27,2.32,2.32,0,0,1-1.54.56,2.23,2.23,0,0,1-1.84-.78,3,3,0,0,1-.64-2v-.21a3,3,0,0,1,.64-2,2.51,2.51,0,0,1,3.42-.22,1.78,1.78,0,0,1,.59,1.4v0h-.91a1.16,1.16,0,0,0-.36-.86,1.23,1.23,0,0,0-.9-.35,1.21,1.21,0,0,0-1.13.57,2.66,2.66,0,0,0-.34,1.39v.21a2.7,2.7,0,0,0,.34,1.41A1.21,1.21,0,0,0,722.4,266.71Z"/><path class="cls-15" d="M726.7,262.61a2,2,0,0,1,.7-.62,1.92,1.92,0,0,1,.92-.22,1.78,1.78,0,0,1,1.37.53,2.33,2.33,0,0,1,.49,1.63v3.45h-1v-3.47a1.48,1.48,0,0,0-.29-1,1.12,1.12,0,0,0-.87-.33,1.48,1.48,0,0,0-.76.2,1.64,1.64,0,0,0-.56.53v4.07h-1v-8h1Z"/><path class="cls-15" d="M740,267.39h-1v-3.28h-3.6v3.28h-1V260h1v3.35H739V260h1Z"/><path class="cls-15" d="M745.06,267.39q-.05-.25-.08-.44a3.17,3.17,0,0,1,0-.38,2.34,2.34,0,0,1-.73.66,1.87,1.87,0,0,1-1,.27,1.8,1.8,0,0,1-1.31-.44,1.62,1.62,0,0,1-.45-1.22,1.42,1.42,0,0,1,.64-1.24,3,3,0,0,1,1.74-.45h1.09v-.55a1,1,0,0,0-.3-.77,1.16,1.16,0,0,0-.84-.28,1.21,1.21,0,0,0-.79.25.74.74,0,0,0-.3.59h-1v0a1.33,1.33,0,0,1,.57-1.1,2.33,2.33,0,0,1,1.55-.5,2.28,2.28,0,0,1,1.51.48,1.69,1.69,0,0,1,.57,1.37v2.66a5.15,5.15,0,0,0,0,.57,2.92,2.92,0,0,0,.11.54Zm-1.67-.74a1.79,1.79,0,0,0,1-.28,1.33,1.33,0,0,0,.57-.64v-.89h-1.13a1.47,1.47,0,0,0-1,.3.91.91,0,0,0-.36.72.76.76,0,0,0,.23.58A1,1,0,0,0,743.39,266.65Z"/><path class="cls-15" d="M750,262.76l-.51,0a1.15,1.15,0,0,0-.67.19,1.21,1.21,0,0,0-.42.53v3.94h-1v-5.51h.9l.1.81A1.91,1.91,0,0,1,749,262a1.35,1.35,0,0,1,.79-.24l.21,0,.17,0Z"/><path class="cls-15" d="M755.69,264.84a3,3,0,0,1-.57,1.92,1.89,1.89,0,0,1-1.58.73,2,2,0,0,1-.95-.21,1.76,1.76,0,0,1-.67-.62l-.12.73H751v-8h1v3.09a1.75,1.75,0,0,1,.64-.56,2,2,0,0,1,.9-.19,1.83,1.83,0,0,1,1.59.82,3.67,3.67,0,0,1,.57,2.15Zm-1-.11a3,3,0,0,0-.35-1.55,1.15,1.15,0,0,0-1.06-.6,1.31,1.31,0,0,0-.78.23,1.6,1.6,0,0,0-.51.61v2.39a1.65,1.65,0,0,0,.51.64,1.31,1.31,0,0,0,.79.23,1.19,1.19,0,0,0,1.05-.5,2.31,2.31,0,0,0,.35-1.34Z"/><path class="cls-15" d="M756.68,264.58a3,3,0,0,1,.66-2,2.45,2.45,0,0,1,3.61,0,3,3,0,0,1,.66,2v.11a3,3,0,0,1-.66,2,2.47,2.47,0,0,1-3.61,0,3,3,0,0,1-.67-2Zm1,.11a2.6,2.6,0,0,0,.37,1.45,1.34,1.34,0,0,0,2.19,0,2.6,2.6,0,0,0,.37-1.45v-.11a2.59,2.59,0,0,0-.37-1.44,1.23,1.23,0,0,0-1.1-.58,1.21,1.21,0,0,0-1.09.58,2.61,2.61,0,0,0-.37,1.44Z"/><path class="cls-15" d="M766.35,266.57a1.87,1.87,0,0,1-.67.68,1.83,1.83,0,0,1-.94.24,1.77,1.77,0,0,1-1.41-.58,2.68,2.68,0,0,1-.5-1.79v-3.25h1v3.26a2,2,0,0,0,.26,1.21,1,1,0,0,0,.81.33,1.66,1.66,0,0,0,.88-.22,1.36,1.36,0,0,0,.53-.61v-4h1v5.51h-.9Z"/><path class="cls-15" d="M771.39,262.76l-.51,0a1.15,1.15,0,0,0-.67.19,1.21,1.21,0,0,0-.42.53v3.94h-1v-5.51h.9l.1.81a1.91,1.91,0,0,1,.58-.67,1.36,1.36,0,0,1,.79-.24l.21,0,.17,0Z"/><path class="cls-5" d="M701.69,276.33l1.11-6.4h1.8a2.05,2.05,0,0,1,1.38.45,1.36,1.36,0,0,1,.39,1.19,1.54,1.54,0,0,1-.36.87,2,2,0,0,1-.86.56,1.25,1.25,0,0,1,.71.55,1.5,1.5,0,0,1,.22.93,1.84,1.84,0,0,1-.67,1.34,2.42,2.42,0,0,1-1.59.5Zm1.07-3.07-.46,2.61h1.54a1.86,1.86,0,0,0,1.17-.36,1.42,1.42,0,0,0,.55-1,1.08,1.08,0,0,0-.25-.89,1.23,1.23,0,0,0-.9-.35Zm.08-.46h1.4a1.78,1.78,0,0,0,1.11-.35,1.28,1.28,0,0,0,.49-.91q.11-1.11-1.25-1.16h-1.33Z"/><path class="cls-5" d="M707.09,273.9a3.12,3.12,0,0,1,.42-1.26,2.41,2.41,0,0,1,.85-.87,2.07,2.07,0,0,1,1.11-.29,1.66,1.66,0,0,1,1,.32,1.78,1.78,0,0,1,.61.86,2.79,2.79,0,0,1,.13,1.2v.08a3,3,0,0,1-.8,1.81,2.08,2.08,0,0,1-1.6.66,1.62,1.62,0,0,1-1.28-.59,2.27,2.27,0,0,1-.47-1.52v-.4Zm.51.15a2.39,2.39,0,0,0,.08,1,1.43,1.43,0,0,0,.43.69,1.15,1.15,0,0,0,.73.26,1.53,1.53,0,0,0,.87-.24,1.93,1.93,0,0,0,.65-.71,2.83,2.83,0,0,0,.33-1v-.15a2.16,2.16,0,0,0-.26-1.39,1.13,1.13,0,0,0-1-.55,1.52,1.52,0,0,0-1.21.54,2.64,2.64,0,0,0-.63,1.5Z"/><path class="cls-5" d="M712.48,276.33H712l1.17-6.75h.53Z"/><path class="cls-5" d="M714.48,276.33H714l.83-4.75h.52Zm.45-6.13q0-.29.38-.36a.43.43,0,0,1,.24.11.44.44,0,0,1,.09.25.5.5,0,0,1-.13.24.53.53,0,0,1-.25.11Q714.91,270.5,714.93,270.2Z"/><path class="cls-5" d="M717.49,275.58l2-4h.55l-2.46,4.75h-.43l-1-4.75h.52Z"/><path class="cls-5" d="M720.72,276.33h-.53l.83-4.75h.52Zm.45-6.13q0-.29.38-.36a.43.43,0,0,1,.24.11.44.44,0,0,1,.09.25.5.5,0,0,1-.13.24.53.53,0,0,1-.25.11Q721.15,270.5,721.17,270.2Z"/><path class="cls-5" d="M725.09,276.33a1.73,1.73,0,0,1,0-.33l0-.33a2.46,2.46,0,0,1-.75.56,2,2,0,0,1-.92.19,1.36,1.36,0,0,1-1-.38,1.14,1.14,0,0,1-.34-.93,1.4,1.4,0,0,1,.32-.81,1.85,1.85,0,0,1,.82-.54,3.49,3.49,0,0,1,1.19-.19h1l.08-.54a1,1,0,0,0-.21-.78,1,1,0,0,0-.78-.31,1.5,1.5,0,0,0-.9.26,1.13,1.13,0,0,0-.48.7h-.51a1.46,1.46,0,0,1,.64-1,2.16,2.16,0,0,1,1.31-.38,1.52,1.52,0,0,1,1.13.44A1.33,1.33,0,0,1,726,273l-.4,2.39,0,.38a1.81,1.81,0,0,0,0,.47v.05Zm-1.56-.37a1.73,1.73,0,0,0,.93-.23,2.06,2.06,0,0,0,.73-.71l.18-1.05h-.84a2.64,2.64,0,0,0-1.3.28,1,1,0,0,0-.56.81.76.76,0,0,0,.2.64A.91.91,0,0,0,723.54,276Z"/><path class="cls-5" d="M728.18,271.57l-.16.81a2.31,2.31,0,0,1,.73-.67,1.71,1.71,0,0,1,.89-.23,1.16,1.16,0,0,1,1,.48,1.85,1.85,0,0,1,.22,1.27l-.52,3.09h-.52l.52-3.1a2.68,2.68,0,0,0,0-.48.79.79,0,0,0-.85-.8,1.41,1.41,0,0,0-.86.27,2.4,2.4,0,0,0-.7.85l-.56,3.26h-.52l.83-4.75Z"/><path class="cls-5" d="M736.82,276.33a1.73,1.73,0,0,1,0-.33l0-.33a2.46,2.46,0,0,1-.75.56,2,2,0,0,1-.92.19,1.36,1.36,0,0,1-1-.38,1.14,1.14,0,0,1-.34-.93,1.4,1.4,0,0,1,.32-.81,1.85,1.85,0,0,1,.82-.54,3.49,3.49,0,0,1,1.19-.19h1l.08-.54a1,1,0,0,0-.21-.78,1,1,0,0,0-.78-.31,1.5,1.5,0,0,0-.9.26,1.13,1.13,0,0,0-.48.7h-.51a1.46,1.46,0,0,1,.64-1,2.16,2.16,0,0,1,1.31-.38,1.52,1.52,0,0,1,1.13.44,1.33,1.33,0,0,1,.32,1.11l-.4,2.39,0,.38a1.81,1.81,0,0,0,0,.47v.05Zm-1.56-.37a1.73,1.73,0,0,0,.93-.23,2.06,2.06,0,0,0,.73-.71l.18-1.05h-.84a2.64,2.64,0,0,0-1.3.28,1,1,0,0,0-.56.81.76.76,0,0,0,.2.64A.91.91,0,0,0,735.26,276Z"/><path class="cls-5" d="M740.42,276a1.38,1.38,0,0,0,.92-.29,1.46,1.46,0,0,0,.53-.82h.5a1.81,1.81,0,0,1-.69,1.14,2,2,0,0,1-1.28.42,1.59,1.59,0,0,1-1-.32,1.68,1.68,0,0,1-.57-.84,3,3,0,0,1-.11-1.21l0-.19a3.49,3.49,0,0,1,.23-.9,2.72,2.72,0,0,1,.46-.77,2.14,2.14,0,0,1,.69-.53,1.93,1.93,0,0,1,.91-.18,1.54,1.54,0,0,1,1.16.49,1.63,1.63,0,0,1,.4,1.2h-.5a1.27,1.27,0,0,0-.29-.89,1.06,1.06,0,0,0-.8-.36,1.42,1.42,0,0,0-1,.32,2,2,0,0,0-.63.94,3.72,3.72,0,0,0-.2,1.3,1.76,1.76,0,0,0,.32,1.09A1.08,1.08,0,0,0,740.42,276Z"/><path class="cls-5" d="M745,276a1.38,1.38,0,0,0,.92-.29,1.46,1.46,0,0,0,.53-.82h.5a1.81,1.81,0,0,1-.69,1.14,2,2,0,0,1-1.28.42,1.59,1.59,0,0,1-1-.32,1.68,1.68,0,0,1-.57-.84,3,3,0,0,1-.11-1.21l0-.19a3.49,3.49,0,0,1,.23-.9,2.72,2.72,0,0,1,.46-.77,2.14,2.14,0,0,1,.69-.53,1.93,1.93,0,0,1,.91-.18,1.54,1.54,0,0,1,1.16.49,1.63,1.63,0,0,1,.4,1.2h-.5a1.27,1.27,0,0,0-.29-.89,1.06,1.06,0,0,0-.8-.36,1.42,1.42,0,0,0-1,.32,2,2,0,0,0-.63.94,3.72,3.72,0,0,0-.2,1.3,1.76,1.76,0,0,0,.32,1.09A1.08,1.08,0,0,0,745,276Z"/><path class="cls-5" d="M749.54,276.41a1.66,1.66,0,0,1-1-.32,1.79,1.79,0,0,1-.61-.84,2.61,2.61,0,0,1-.14-1.15v-.15a3.16,3.16,0,0,1,.39-1.25,2.42,2.42,0,0,1,.83-.91,1.93,1.93,0,0,1,1.08-.3,1.48,1.48,0,0,1,.9.29,1.59,1.59,0,0,1,.53.78,2.63,2.63,0,0,1,.11,1.11l0,.32h-3.29v.11a2.1,2.1,0,0,0,.07.92,1.43,1.43,0,0,0,.45.69,1.17,1.17,0,0,0,.75.27,1.52,1.52,0,0,0,.76-.16,2.45,2.45,0,0,0,.63-.47l.31.25a2.08,2.08,0,0,1-1.73.83Zm.55-4.48a1.37,1.37,0,0,0-1,.4,2.63,2.63,0,0,0-.68,1.2h2.76v-.07a1.53,1.53,0,0,0-.22-1.07A1,1,0,0,0,750.1,271.93Z"/><path class="cls-5" d="M755.22,275.09q.07-.61-.74-.88l-.76-.22q-1-.35-1-1.17a1.22,1.22,0,0,1,.55-1,2,2,0,0,1,1.23-.36,1.68,1.68,0,0,1,1.13.39,1.22,1.22,0,0,1,.4,1h-.52a.83.83,0,0,0-.27-.69,1.14,1.14,0,0,0-.78-.28,1.46,1.46,0,0,0-.84.24.84.84,0,0,0-.39.62c0,.38.19.64.7.8l.55.16.29.1q1,.37.94,1.22a1.26,1.26,0,0,1-.49.94,2,2,0,0,1-1.18.41h-.18a2.15,2.15,0,0,1-.87-.19,1.37,1.37,0,0,1-.59-.5,1.19,1.19,0,0,1-.18-.74h.52a.88.88,0,0,0,.3.71,1.28,1.28,0,0,0,.83.27,1.61,1.61,0,0,0,.9-.24A.88.88,0,0,0,755.22,275.09Z"/><path class="cls-5" d="M759.68,275.09q.07-.61-.74-.88l-.76-.22q-1-.35-1-1.17a1.22,1.22,0,0,1,.55-1,2,2,0,0,1,1.23-.36,1.68,1.68,0,0,1,1.13.39,1.22,1.22,0,0,1,.4,1H760a.83.83,0,0,0-.27-.69,1.14,1.14,0,0,0-.78-.28,1.46,1.46,0,0,0-.84.24.84.84,0,0,0-.39.62c0,.38.19.64.7.8l.55.16.29.1q1,.37.94,1.22a1.26,1.26,0,0,1-.49.94,2,2,0,0,1-1.18.41h-.18a2.15,2.15,0,0,1-.87-.19,1.37,1.37,0,0,1-.59-.5,1.19,1.19,0,0,1-.18-.74h.52a.88.88,0,0,0,.3.71,1.28,1.28,0,0,0,.83.27,1.61,1.61,0,0,0,.9-.24A.88.88,0,0,0,759.68,275.09Z"/><path class="cls-5" d="M765.15,270.35l-.21,1.22h1l-.08.43h-1l-.53,3.17v.27q0,.48.44.49l.43,0,0,.43a1.7,1.7,0,0,1-.53.07.77.77,0,0,1-.67-.32,1.39,1.39,0,0,1-.15-.91l.52-3.17h-.85l.08-.43h.84l.22-1.22Z"/><path class="cls-5" d="M766.2,273.9a3.12,3.12,0,0,1,.42-1.26,2.41,2.41,0,0,1,.85-.87,2.07,2.07,0,0,1,1.11-.29,1.66,1.66,0,0,1,1,.32,1.78,1.78,0,0,1,.61.86,2.8,2.8,0,0,1,.13,1.2v.08a3,3,0,0,1-.8,1.81,2.08,2.08,0,0,1-1.6.66,1.62,1.62,0,0,1-1.28-.59,2.27,2.27,0,0,1-.47-1.52v-.4Zm.51.15a2.39,2.39,0,0,0,.08,1,1.43,1.43,0,0,0,.43.69,1.15,1.15,0,0,0,.73.26,1.53,1.53,0,0,0,.87-.24,1.93,1.93,0,0,0,.65-.71,2.83,2.83,0,0,0,.33-1v-.15a2.16,2.16,0,0,0-.26-1.39,1.13,1.13,0,0,0-1-.55,1.52,1.52,0,0,0-1.21.54,2.64,2.64,0,0,0-.63,1.5Z"/><path class="cls-5" d="M775,270.35l-.21,1.22h1l-.08.43h-1l-.53,3.17v.27q0,.48.44.49l.43,0,0,.43a1.69,1.69,0,0,1-.53.07.77.77,0,0,1-.67-.32,1.39,1.39,0,0,1-.15-.91l.52-3.17h-.85l.08-.43h.84l.22-1.22Z"/><path class="cls-5" d="M777.19,272.38a1.94,1.94,0,0,1,1.62-.89,1.16,1.16,0,0,1,1,.48,1.85,1.85,0,0,1,.22,1.27l-.52,3.09H779l.52-3.1a2.68,2.68,0,0,0,0-.48.79.79,0,0,0-.85-.8,1.41,1.41,0,0,0-.86.27,2.4,2.4,0,0,0-.7.85l-.56,3.26H776l1.17-6.75h.52Z"/><path class="cls-5" d="M782.74,276.41a1.66,1.66,0,0,1-1-.32,1.79,1.79,0,0,1-.61-.84,2.61,2.61,0,0,1-.14-1.15v-.15a3.16,3.16,0,0,1,.39-1.25,2.42,2.42,0,0,1,.83-.91,1.93,1.93,0,0,1,1.08-.3,1.48,1.48,0,0,1,.9.29,1.59,1.59,0,0,1,.53.78,2.63,2.63,0,0,1,.11,1.11l0,.32h-3.29v.11a2.1,2.1,0,0,0,.07.92,1.43,1.43,0,0,0,.45.69,1.17,1.17,0,0,0,.75.27,1.52,1.52,0,0,0,.76-.16,2.45,2.45,0,0,0,.63-.47l.31.25a2.08,2.08,0,0,1-1.73.83Zm.55-4.48a1.37,1.37,0,0,0-1,.4,2.63,2.63,0,0,0-.68,1.2h2.76v-.07a1.53,1.53,0,0,0-.22-1.07A1,1,0,0,0,783.29,271.93Z"/><path class="cls-5" d="M702.68,284.52l-.45,2.61h-.54l1.11-6.4h2.08a1.93,1.93,0,0,1,1.38.53,1.63,1.63,0,0,1,.41,1.35A2,2,0,0,1,706,284a2.58,2.58,0,0,1-1.66.51Zm.08-.46h1.56a2,2,0,0,0,1.25-.39,1.54,1.54,0,0,0,.58-1.07,1.24,1.24,0,0,0-.28-1,1.34,1.34,0,0,0-1-.39h-1.61Z"/><path class="cls-5" d="M709.9,287.13a1.73,1.73,0,0,1,0-.33l0-.33a2.46,2.46,0,0,1-.75.56,2,2,0,0,1-.92.19,1.36,1.36,0,0,1-1-.38,1.14,1.14,0,0,1-.34-.93,1.4,1.4,0,0,1,.32-.81,1.85,1.85,0,0,1,.82-.54,3.49,3.49,0,0,1,1.19-.19h1l.08-.54a1,1,0,0,0-.21-.78,1,1,0,0,0-.78-.31,1.5,1.5,0,0,0-.9.26,1.13,1.13,0,0,0-.48.7h-.51a1.46,1.46,0,0,1,.64-1,2.16,2.16,0,0,1,1.31-.38,1.52,1.52,0,0,1,1.13.44,1.33,1.33,0,0,1,.32,1.11l-.4,2.39,0,.38a1.81,1.81,0,0,0,0,.47v.05Zm-1.56-.37a1.73,1.73,0,0,0,.93-.23,2.06,2.06,0,0,0,.73-.71l.18-1.05h-.84a2.64,2.64,0,0,0-1.3.28,1,1,0,0,0-.56.81.76.76,0,0,0,.2.64A.91.91,0,0,0,708.34,286.76Z"/><path class="cls-5" d="M714.56,282.81a2,2,0,0,0-.35,0,1.52,1.52,0,0,0-.92.31,1.46,1.46,0,0,0-.56.78l-.56,3.27h-.52l.83-4.75H713l-.16.76a1.85,1.85,0,0,1,.63-.64,1.48,1.48,0,0,1,.81-.21,1.3,1.3,0,0,1,.36.06Z"/><path class="cls-5" d="M717.42,287.13a1.75,1.75,0,0,1,0-.33l0-.33a2.46,2.46,0,0,1-.75.56,2,2,0,0,1-.92.19,1.36,1.36,0,0,1-1-.38,1.14,1.14,0,0,1-.34-.93,1.4,1.4,0,0,1,.32-.81,1.85,1.85,0,0,1,.82-.54,3.49,3.49,0,0,1,1.19-.19h1l.08-.54a1,1,0,0,0-.21-.78,1,1,0,0,0-.78-.31,1.5,1.5,0,0,0-.9.26,1.13,1.13,0,0,0-.48.7H715a1.46,1.46,0,0,1,.64-1,2.16,2.16,0,0,1,1.31-.38,1.52,1.52,0,0,1,1.13.44,1.33,1.33,0,0,1,.32,1.11l-.4,2.39,0,.38a1.81,1.81,0,0,0,0,.47v.05Zm-1.56-.37a1.73,1.73,0,0,0,.93-.23,2.06,2.06,0,0,0,.73-.71l.18-1.05h-.84a2.64,2.64,0,0,0-1.3.28,1,1,0,0,0-.56.81.76.76,0,0,0,.2.64A.91.91,0,0,0,715.86,286.76Z"/><path class="cls-5" d="M721.55,282.28a1.73,1.73,0,0,1,.78.2,1.33,1.33,0,0,1,.55.58l.16-.69h.49l-.8,4.67a2.58,2.58,0,0,1-.38,1.05,2,2,0,0,1-1.78.93,1.9,1.9,0,0,1-.86-.22,1.75,1.75,0,0,1-.66-.61l.33-.31a1.41,1.41,0,0,0,1.18.7,1.47,1.47,0,0,0,1.09-.39,1.9,1.9,0,0,0,.55-1.12l.11-.55a1.88,1.88,0,0,1-1.53.7,1.27,1.27,0,0,1-1-.51,2.28,2.28,0,0,1-.39-1.35,4,4,0,0,1,.26-1.56,2.54,2.54,0,0,1,.79-1.15A1.72,1.72,0,0,1,721.55,282.28Zm-1.63,2.55,0,.41a1.91,1.91,0,0,0,.25,1.11.92.92,0,0,0,.78.41,1.48,1.48,0,0,0,.82-.21,2,2,0,0,0,.66-.66l.37-2.22a1.33,1.33,0,0,0-.41-.67,1.17,1.17,0,0,0-.75-.26,1.32,1.32,0,0,0-1.11.52A3.12,3.12,0,0,0,719.92,284.82Z"/><path class="cls-5" d="M727.22,286.53a1.82,1.82,0,0,1-1.56.69,1.17,1.17,0,0,1-1-.49,1.89,1.89,0,0,1-.24-1.31l.51-3h.52l-.51,3.06a2.29,2.29,0,0,0,0,.47,1,1,0,0,0,.24.62.81.81,0,0,0,.58.23,1.72,1.72,0,0,0,1-.24,1.22,1.22,0,0,0,.58-.7l.59-3.45h.53l-.83,4.75h-.51Z"/><path class="cls-5" d="M731.87,287.13a1.75,1.75,0,0,1,0-.33l0-.33a2.46,2.46,0,0,1-.75.56,2,2,0,0,1-.92.19,1.36,1.36,0,0,1-1-.38,1.14,1.14,0,0,1-.34-.93,1.4,1.4,0,0,1,.32-.81,1.85,1.85,0,0,1,.82-.54,3.49,3.49,0,0,1,1.19-.19h1l.08-.54a1,1,0,0,0-.21-.78,1,1,0,0,0-.78-.31,1.5,1.5,0,0,0-.9.26,1.13,1.13,0,0,0-.48.7h-.51a1.46,1.46,0,0,1,.64-1,2.16,2.16,0,0,1,1.31-.38,1.52,1.52,0,0,1,1.13.44,1.33,1.33,0,0,1,.32,1.11l-.4,2.39,0,.38a1.81,1.81,0,0,0,0,.47v.05Zm-1.56-.37a1.73,1.73,0,0,0,.93-.23,2.06,2.06,0,0,0,.73-.71l.18-1.05h-.84a2.64,2.64,0,0,0-1.3.28,1,1,0,0,0-.56.81.76.76,0,0,0,.2.64A.91.91,0,0,0,730.31,286.76Z"/><path class="cls-5" d="M735.15,286.35l2-4h.58l-2.9,5.52a2.54,2.54,0,0,1-.68.91,1.26,1.26,0,0,1-.8.26A2.41,2.41,0,0,1,733,289l.05-.43.26,0a1.24,1.24,0,0,0,1.16-.87l.33-.66-.92-4.68h.55Z"/><path class="cls-5" d="M742.84,284.46H741l-.47,2.66H740l1.11-6.4H743a2,2,0,0,1,1.48.5,1.55,1.55,0,0,1,.43,1.35,1.91,1.91,0,0,1-.48,1.11,2.37,2.37,0,0,1-1.11.68l1.09,2.7v.06h-.57Zm-1.73-.46h1.58a1.76,1.76,0,0,0,1.16-.4,1.53,1.53,0,0,0,.56-1,1.18,1.18,0,0,0-.27-1,1.38,1.38,0,0,0-1-.39H741.6Z"/><path class="cls-5" d="M746.09,287.13h-.53l.83-4.75h.52Zm.45-6.13q0-.29.38-.36a.43.43,0,0,1,.24.11.44.44,0,0,1,.09.25.5.5,0,0,1-.13.24.53.53,0,0,1-.25.11Q746.52,281.3,746.54,281Z"/><path class="cls-5" d="M749.1,286.38l2-4h.55l-2.46,4.75h-.43l-1-4.75h.52Z"/><path class="cls-5" d="M753.58,287.21a1.66,1.66,0,0,1-1-.32,1.79,1.79,0,0,1-.61-.84,2.61,2.61,0,0,1-.14-1.15v-.15a3.16,3.16,0,0,1,.39-1.25,2.42,2.42,0,0,1,.83-.91,1.93,1.93,0,0,1,1.08-.3,1.48,1.48,0,0,1,.9.29,1.59,1.59,0,0,1,.53.78,2.63,2.63,0,0,1,.11,1.11l0,.32h-3.29v.11a2.1,2.1,0,0,0,.07.92,1.43,1.43,0,0,0,.45.69,1.17,1.17,0,0,0,.75.27,1.52,1.52,0,0,0,.76-.16,2.45,2.45,0,0,0,.63-.47l.31.25a2.08,2.08,0,0,1-1.73.83Zm.55-4.48a1.37,1.37,0,0,0-1,.4,2.63,2.63,0,0,0-.68,1.2h2.76v-.07a1.53,1.53,0,0,0-.22-1.07A1,1,0,0,0,754.13,282.73Z"/><path class="cls-5" d="M759.15,282.81a2,2,0,0,0-.35,0,1.52,1.52,0,0,0-.92.31,1.46,1.46,0,0,0-.56.78l-.56,3.27h-.52l.83-4.75h.51l-.16.76a1.85,1.85,0,0,1,.63-.64,1.48,1.48,0,0,1,.81-.21,1.3,1.3,0,0,1,.36.06Z"/><circle class="cls-15" cx="689.23" cy="274.63" r="3.4" transform="translate(7.68 567.79) rotate(-45)"/><polyline class="cls-16" points="298.06 489.55 326.48 380.39 324.4 332.99 350.33 292.92 368.06 248.17 462.03 231.33 517.33 214.49 594.67 212.83 670.23 260.09 674.32 284.79"/><path class="cls-17" d="M459.13,117.48v-9.24h3a3.66,3.66,0,0,1,2.27.63,2.21,2.21,0,0,1,.82,1.88,1.71,1.71,0,0,1-.39,1.1,2.34,2.34,0,0,1-1,.72,2.14,2.14,0,0,1,1.32.82,2.42,2.42,0,0,1,.48,1.49,2.36,2.36,0,0,1-.82,1.94,3.43,3.43,0,0,1-2.23.67Zm1.25-5.31h2a1.66,1.66,0,0,0,1.14-.38,1.35,1.35,0,0,0,.44-1.07,1.33,1.33,0,0,0-.47-1.12,2.16,2.16,0,0,0-1.36-.37h-1.77Zm0,1v3.35h2.16a1.94,1.94,0,0,0,1.33-.42,1.51,1.51,0,0,0,.48-1.19,1.89,1.89,0,0,0-.4-1.27,1.52,1.52,0,0,0-1.22-.46Z"/><path class="cls-17" d="M474.44,113.68a3.94,3.94,0,0,1-1.05,2.81,3.57,3.57,0,0,1-2.73,1.12,3.39,3.39,0,0,1-2.63-1.12,4,4,0,0,1-1-2.81V112a4,4,0,0,1,1-2.81,3.38,3.38,0,0,1,2.63-1.12,3.56,3.56,0,0,1,2.73,1.12,4,4,0,0,1,1.05,2.81ZM473.19,112a3.12,3.12,0,0,0-.69-2.08,2.28,2.28,0,0,0-1.84-.81,2.12,2.12,0,0,0-1.74.81,3.23,3.23,0,0,0-.65,2.08v1.66a3.25,3.25,0,0,0,.65,2.09,2.12,2.12,0,0,0,1.74.81,2.29,2.29,0,0,0,1.84-.81,3.14,3.14,0,0,0,.68-2.1Z"/><path class="cls-17" d="M477.55,113.47v4H476.3v-9.24h3.35a3.51,3.51,0,0,1,2.32.67,2.41,2.41,0,0,1,.8,2,2.1,2.1,0,0,1-.37,1.24,2.52,2.52,0,0,1-1.08.84,1.9,1.9,0,0,1,1.1.8,2.64,2.64,0,0,1,.33,1.37V116a2.94,2.94,0,0,0,.09.77,1.17,1.17,0,0,0,.33.56v.15h-1.29a1,1,0,0,1-.32-.63,5.21,5.21,0,0,1-.07-.86v-.84a1.67,1.67,0,0,0-.44-1.21,1.55,1.55,0,0,0-1.17-.46Zm0-1h2a2.33,2.33,0,0,0,1.53-.4,1.53,1.53,0,0,0,.47-1.23,1.58,1.58,0,0,0-.45-1.21,2,2,0,0,0-1.41-.43h-2.1Z"/><path class="cls-17" d="M484.92,117.48v-9.24h2.84a3.8,3.8,0,0,1,4,4v1.26a3.79,3.79,0,0,1-4,4Zm1.25-8.26v7.27h1.59a2.55,2.55,0,0,0,2-.84,3.16,3.16,0,0,0,.74-2.16v-1.27a3.14,3.14,0,0,0-.74-2.15,2.55,2.55,0,0,0-2-.84Z"/><path class="cls-17" d="M499,113.19h-4.23v3.3h4.88v1h-6.13v-9.24h6.06v1h-4.81v3H499Z"/><path class="cls-17" d="M502.33,113.47v4h-1.25v-9.24h3.35a3.51,3.51,0,0,1,2.32.67,2.41,2.41,0,0,1,.8,2,2.1,2.1,0,0,1-.37,1.24,2.52,2.52,0,0,1-1.08.84,1.9,1.9,0,0,1,1.1.8,2.64,2.64,0,0,1,.33,1.37V116a2.94,2.94,0,0,0,.09.77,1.17,1.17,0,0,0,.33.56v.15h-1.29a1,1,0,0,1-.32-.63,5.2,5.2,0,0,1-.07-.86v-.84a1.67,1.67,0,0,0-.44-1.21,1.55,1.55,0,0,0-1.17-.46Zm0-1h2a2.33,2.33,0,0,0,1.53-.4,1.53,1.53,0,0,0,.47-1.23,1.58,1.58,0,0,0-.45-1.21,2,2,0,0,0-1.41-.43h-2.1Z"/><path class="cls-17" d="M514.52,108.23l2.95,7.51h0l2.95-7.51H522v9.24H520.8v-3.66l.13-3.76h0l-3,7.42h-.83l-3-7.4h0l.12,3.74v3.66h-1.25v-9.24Z"/><path class="cls-17" d="M529.46,115.1h-3.87l-.88,2.38h-1.28l3.57-9.24h1.07l3.52,9.24h-1.28ZM526,114h3.11l-1.52-4.21h0Z"/><path class="cls-17" d="M539.13,109.22h-3v8.26h-1.25v-8.26h-3v-1h7.19Z"/><path class="cls-17" d="M546.85,109.22h-3v8.26h-1.25v-8.26h-3v-1h7.19Z"/><path class="cls-17" d="M553.69,113.19h-4.23v3.3h4.88v1h-6.13v-9.24h6.06v1h-4.81v3h4.23Z"/><path class="cls-17" d="M557.06,113.47v4h-1.25v-9.24h3.35a3.51,3.51,0,0,1,2.32.67,2.41,2.41,0,0,1,.8,2,2.1,2.1,0,0,1-.37,1.24,2.52,2.52,0,0,1-1.08.84,1.9,1.9,0,0,1,1.1.8,2.64,2.64,0,0,1,.33,1.37V116a2.94,2.94,0,0,0,.09.77,1.17,1.17,0,0,0,.33.56v.15h-1.29a1,1,0,0,1-.32-.63A5.2,5.2,0,0,1,561,116v-.84a1.67,1.67,0,0,0-.44-1.21,1.55,1.55,0,0,0-1.17-.46Zm0-1h2a2.33,2.33,0,0,0,1.53-.4,1.53,1.53,0,0,0,.47-1.23,1.58,1.58,0,0,0-.45-1.21,2,2,0,0,0-1.41-.43h-2.1Z"/><path class="cls-17" d="M574.65,113.68a3.94,3.94,0,0,1-1.05,2.81,3.57,3.57,0,0,1-2.73,1.12,3.39,3.39,0,0,1-2.63-1.12,4,4,0,0,1-1-2.81V112a4,4,0,0,1,1-2.81,3.38,3.38,0,0,1,2.63-1.12,3.56,3.56,0,0,1,2.73,1.12,4,4,0,0,1,1.05,2.81ZM573.4,112a3.12,3.12,0,0,0-.69-2.08,2.28,2.28,0,0,0-1.84-.81,2.12,2.12,0,0,0-1.74.81,3.23,3.23,0,0,0-.65,2.08v1.66a3.25,3.25,0,0,0,.65,2.09,2.12,2.12,0,0,0,1.74.81,2.29,2.29,0,0,0,1.84-.81,3.14,3.14,0,0,0,.68-2.1Z"/><path class="cls-17" d="M582,113.39h-4.21v4.09h-1.25v-9.24h6.11v1h-4.86v3.19H582Z"/><path class="cls-17" d="M587.32,117.48v-9.24h2.84a3.8,3.8,0,0,1,4,4v1.26a3.79,3.79,0,0,1-4,4Zm1.25-8.26v7.27h1.59a2.55,2.55,0,0,0,2-.84,3.16,3.16,0,0,0,.74-2.16v-1.27a3.14,3.14,0,0,0-.74-2.15,2.55,2.55,0,0,0-2-.84Z"/><path class="cls-17" d="M597.2,117.48h-1.26v-9.24h1.26Z"/><path class="cls-17" d="M604.59,115.15a1.36,1.36,0,0,0-.48-1.06,4,4,0,0,0-1.69-.72,5.58,5.58,0,0,1-2.29-1,2.13,2.13,0,0,1-.82-1.71,2.24,2.24,0,0,1,.89-1.81,3.5,3.5,0,0,1,2.29-.73,3.42,3.42,0,0,1,2.41.83,2.45,2.45,0,0,1,.87,1.93v0h-1.19a1.72,1.72,0,0,0-.54-1.31,2.63,2.63,0,0,0-3-.08,1.38,1.38,0,0,0-.5,1.1,1.21,1.21,0,0,0,.54,1,5.11,5.11,0,0,0,1.75.71,5,5,0,0,1,2.22,1.07,2.28,2.28,0,0,1,.76,1.75,2.13,2.13,0,0,1-.91,1.8,3.9,3.9,0,0,1-2.39.68,4.13,4.13,0,0,1-2.45-.75,2.27,2.27,0,0,1-1-2v0h1.19a1.55,1.55,0,0,0,.65,1.35,2.72,2.72,0,0,0,1.62.46,2.52,2.52,0,0,0,1.5-.4A1.26,1.26,0,0,0,604.59,115.15Z"/><path class="cls-17" d="M608.91,113.77v3.71h-1.25v-9.24h3.54a3.25,3.25,0,0,1,2.3.76,2.88,2.88,0,0,1,0,4,3.28,3.28,0,0,1-2.3.75Zm0-1h2.29a1.68,1.68,0,0,0,1.87-1.77,1.83,1.83,0,0,0-.47-1.28,1.8,1.8,0,0,0-1.4-.51h-2.29Z"/><path class="cls-17" d="M622.74,108.23v6.27a2.81,2.81,0,0,1-1,2.31,3.93,3.93,0,0,1-2.56.8,3.7,3.7,0,0,1-2.47-.8,2.85,2.85,0,0,1-.95-2.31v-6.27H617v6.26a2,2,0,0,0,.6,1.59,2.25,2.25,0,0,0,1.57.54,2.46,2.46,0,0,0,1.66-.54,2,2,0,0,0,.63-1.59v-6.26Z"/><path class="cls-17" d="M631,109.22h-3v8.26h-1.25v-8.26h-3v-1H631Z"/><path class="cls-17" d="M637.89,113.19h-4.23v3.3h4.88v1H632.4v-9.24h6.06v1h-4.81v3h4.23Z"/><path class="cls-17" d="M268.5,406.59h-9.24v-3a3.66,3.66,0,0,1,.62-2.27,2.21,2.21,0,0,1,1.88-.82,1.71,1.71,0,0,1,1.1.39,2.34,2.34,0,0,1,.72,1,2.14,2.14,0,0,1,.82-1.32,2.42,2.42,0,0,1,1.49-.48,2.36,2.36,0,0,1,1.94.82,3.43,3.43,0,0,1,.67,2.23Zm-5.31-1.25v-2a1.66,1.66,0,0,0-.38-1.14,1.35,1.35,0,0,0-1.07-.44,1.34,1.34,0,0,0-1.12.47,2.16,2.16,0,0,0-.37,1.36v1.77Zm1,0h3.35v-2.17a1.94,1.94,0,0,0-.42-1.33,1.51,1.51,0,0,0-1.19-.48,1.89,1.89,0,0,0-1.27.4,1.52,1.52,0,0,0-.46,1.22Z"/><path class="cls-17" d="M264.71,391.29a3.94,3.94,0,0,1,2.81,1.05,3.57,3.57,0,0,1,1.12,2.73,3.39,3.39,0,0,1-1.12,2.63,4,4,0,0,1-2.81,1h-1.64a4,4,0,0,1-2.81-1,3.38,3.38,0,0,1-1.12-2.63,3.57,3.57,0,0,1,1.12-2.73,4,4,0,0,1,2.81-1.05Zm-1.66,1.25a3.12,3.12,0,0,0-2.08.69,2.28,2.28,0,0,0-.81,1.84,2.12,2.12,0,0,0,.81,1.74,3.23,3.23,0,0,0,2.08.65h1.66a3.25,3.25,0,0,0,2.09-.65,2.12,2.12,0,0,0,.81-1.74,2.29,2.29,0,0,0-.81-1.84,3.14,3.14,0,0,0-2.1-.68Z"/><path class="cls-17" d="M264.5,388.17h4v1.25h-9.24v-3.35a3.51,3.51,0,0,1,.67-2.32,2.41,2.41,0,0,1,2-.8,2.1,2.1,0,0,1,1.24.37,2.52,2.52,0,0,1,.84,1.08,1.9,1.9,0,0,1,.8-1.1,2.64,2.64,0,0,1,1.37-.33H267a2.94,2.94,0,0,0,.77-.09,1.17,1.17,0,0,0,.56-.33h.15v1.29a1,1,0,0,1-.63.32,5.2,5.2,0,0,1-.86.07h-.84a1.67,1.67,0,0,0-1.21.44,1.55,1.55,0,0,0-.46,1.17Zm-1,0v-2a2.33,2.33,0,0,0-.4-1.53,1.53,1.53,0,0,0-1.23-.47,1.58,1.58,0,0,0-1.21.45,2,2,0,0,0-.43,1.41v2.1Z"/><path class="cls-17" d="M268.5,380.81h-9.24V378a3.8,3.8,0,0,1,4-4h1.26a3.79,3.79,0,0,1,4,4Zm-8.26-1.25h7.27V378a2.55,2.55,0,0,0-.84-2,3.16,3.16,0,0,0-2.16-.74h-1.27a3.14,3.14,0,0,0-2.15.74,2.55,2.55,0,0,0-.84,2Z"/><path class="cls-17" d="M264.22,366.76V371h3.3v-4.88h1v6.13h-9.24v-6.06h1V371h3v-4.23Z"/><path class="cls-17" d="M264.5,363.4h4v1.25h-9.24V361.3a3.51,3.51,0,0,1,.67-2.32,2.41,2.41,0,0,1,2-.8,2.1,2.1,0,0,1,1.24.37,2.52,2.52,0,0,1,.84,1.08,1.9,1.9,0,0,1,.8-1.1,2.64,2.64,0,0,1,1.37-.33H267a2.94,2.94,0,0,0,.77-.09,1.17,1.17,0,0,0,.56-.33h.15v1.29a1,1,0,0,1-.63.32,5.2,5.2,0,0,1-.86.07h-.84a1.67,1.67,0,0,0-1.21.44,1.55,1.55,0,0,0-.46,1.17Zm-1,0v-2a2.33,2.33,0,0,0-.4-1.53,1.53,1.53,0,0,0-1.23-.47,1.58,1.58,0,0,0-1.21.45,2,2,0,0,0-.43,1.41v2.1Z"/><path class="cls-17" d="M259.26,351.21l7.51-2.95v0l-7.51-2.95v-1.6h9.24v1.25h-3.66l-3.76-.13v0l7.42,3v.83l-7.4,3v0l3.74-.12h3.66v1.25h-9.24Z"/><path class="cls-17" d="M266.12,336.26v3.87l2.38.88v1.28l-9.24-3.57v-1.07l9.24-3.52v1.28Zm-1,3.48v-3.11l-4.21,1.52v0Z"/><path class="cls-17" d="M260.24,326.59v3h8.26v1.25h-8.26v3h-1v-7.19Z"/><path class="cls-17" d="M260.24,318.88v3h8.26v1.25h-8.26v3h-1v-7.19Z"/><path class="cls-17" d="M264.22,312v4.23h3.3v-4.88h1v6.13h-9.24v-6.06h1v4.81h3V312Z"/><path class="cls-17" d="M264.5,308.67h4v1.25h-9.24v-3.35a3.51,3.51,0,0,1,.67-2.32,2.41,2.41,0,0,1,2-.8,2.1,2.1,0,0,1,1.24.37,2.52,2.52,0,0,1,.84,1.08,1.9,1.9,0,0,1,.8-1.1,2.64,2.64,0,0,1,1.37-.33H267a2.94,2.94,0,0,0,.77-.09,1.17,1.17,0,0,0,.56-.33h.15v1.29a1,1,0,0,1-.63.32,5.2,5.2,0,0,1-.86.07h-.84a1.67,1.67,0,0,0-1.21.44,1.55,1.55,0,0,0-.46,1.17Zm-1,0v-2a2.33,2.33,0,0,0-.4-1.53,1.53,1.53,0,0,0-1.23-.47,1.58,1.58,0,0,0-1.21.45,2,2,0,0,0-.43,1.41v2.1Z"/><path class="cls-17" d="M280.31,399.6a3.94,3.94,0,0,1,2.81,1.05,3.57,3.57,0,0,1,1.12,2.73,3.39,3.39,0,0,1-1.12,2.63,4,4,0,0,1-2.81,1h-1.64a4,4,0,0,1-2.81-1,3.38,3.38,0,0,1-1.12-2.63,3.57,3.57,0,0,1,1.12-2.73,4,4,0,0,1,2.81-1.05Zm-1.66,1.25a3.12,3.12,0,0,0-2.08.69,2.28,2.28,0,0,0-.81,1.84,2.12,2.12,0,0,0,.81,1.74,3.23,3.23,0,0,0,2.08.65h1.66a3.25,3.25,0,0,0,2.09-.65,2.12,2.12,0,0,0,.81-1.74,2.29,2.29,0,0,0-.81-1.84,3.14,3.14,0,0,0-2.1-.68Z"/><path class="cls-17" d="M280,392.27v4.21h4.09v1.25h-9.24v-6.11h1v4.86H279v-4.21Z"/><path class="cls-17" d="M284.1,386.93h-9.24v-2.84a3.8,3.8,0,0,1,4-4h1.26a3.79,3.79,0,0,1,4,4Zm-8.26-1.25h7.27v-1.59a2.55,2.55,0,0,0-.84-2,3.16,3.16,0,0,0-2.16-.74h-1.27a3.14,3.14,0,0,0-2.15.74,2.55,2.55,0,0,0-.84,2Z"/><path class="cls-17" d="M284.1,377v1.26h-9.24V377Z"/><path class="cls-17" d="M281.78,369.66a1.36,1.36,0,0,0-1.06.48,4,4,0,0,0-.72,1.69,5.58,5.58,0,0,1-1,2.29,2.13,2.13,0,0,1-1.71.82,2.24,2.24,0,0,1-1.81-.89,3.5,3.5,0,0,1-.73-2.29,3.42,3.42,0,0,1,.83-2.42,2.45,2.45,0,0,1,1.93-.87h0v1.19a1.72,1.72,0,0,0-1.31.54,2.63,2.63,0,0,0-.08,3,1.38,1.38,0,0,0,1.1.5,1.21,1.21,0,0,0,1-.54,5.1,5.1,0,0,0,.71-1.75,5,5,0,0,1,1.07-2.22,2.28,2.28,0,0,1,1.75-.76,2.13,2.13,0,0,1,1.8.91,3.9,3.9,0,0,1,.68,2.39,4.13,4.13,0,0,1-.75,2.45,2.27,2.27,0,0,1-2,1h0V374a1.55,1.55,0,0,0,1.35-.65,2.72,2.72,0,0,0,.46-1.62,2.52,2.52,0,0,0-.4-1.5A1.26,1.26,0,0,0,281.78,369.66Z"/><path class="cls-17" d="M280.4,365.33h3.71v1.25h-9.24V363a3.25,3.25,0,0,1,.76-2.3,2.88,2.88,0,0,1,4,0,3.28,3.28,0,0,1,.75,2.3Zm-1,0V363a1.68,1.68,0,0,0-1.77-1.87,1.84,1.84,0,0,0-1.28.47,1.8,1.8,0,0,0-.51,1.4v2.29Z"/><path class="cls-17" d="M274.86,351.5h6.27a2.81,2.81,0,0,1,2.31,1,3.93,3.93,0,0,1,.8,2.56,3.7,3.7,0,0,1-.8,2.47,2.85,2.85,0,0,1-2.31.95h-6.27v-1.25h6.26a2,2,0,0,0,1.59-.6,2.25,2.25,0,0,0,.54-1.57,2.46,2.46,0,0,0-.54-1.66,2,2,0,0,0-1.59-.63h-6.26Z"/><path class="cls-17" d="M275.84,343.2v3h8.26v1.25h-8.26v3h-1V343.2Z"/><path class="cls-17" d="M279.82,336.36v4.23h3.3v-4.88h1v6.13h-9.24v-6.06h1v4.81h3v-4.23Z"/><path class="cls-15" d="M497.33,202h-4.21v4.09h-1.25v-9.24H498v1h-4.86V201h4.21Z"/><path class="cls-15" d="M500.76,206.06H499.5v-9.24h1.26Z"/><path class="cls-15" d="M510.1,206.06h-1.25l-4.45-7.15h0v7.13h-1.25v-9.24h1.25l4.45,7.13h0v-7.12h1.25Z"/><path class="cls-15" d="M517.51,203.68h-3.87l-.88,2.38h-1.28l3.57-9.24h1.07l3.52,9.24h-1.28Zm-3.48-1h3.11l-1.52-4.21h0Z"/><path class="cls-15" d="M522.17,205.08h4.37v1h-5.62v-9.24h1.25Z"/><path class="cls-15" d="M531.17,206.06v-9.24h3a3.66,3.66,0,0,1,2.27.63,2.21,2.21,0,0,1,.82,1.88,1.71,1.71,0,0,1-.39,1.1,2.34,2.34,0,0,1-1,.72,2.14,2.14,0,0,1,1.32.82,2.42,2.42,0,0,1,.48,1.49,2.36,2.36,0,0,1-.82,1.94,3.43,3.43,0,0,1-2.23.67Zm1.25-5.31h2a1.66,1.66,0,0,0,1.14-.38,1.35,1.35,0,0,0,.44-1.07,1.34,1.34,0,0,0-.47-1.12,2.16,2.16,0,0,0-1.36-.37h-1.77Zm0,1v3.35h2.17a1.94,1.94,0,0,0,1.33-.42,1.51,1.51,0,0,0,.48-1.19,1.89,1.89,0,0,0-.4-1.27,1.52,1.52,0,0,0-1.22-.46Z"/><path class="cls-15" d="M546.47,202.27a3.94,3.94,0,0,1-1.05,2.81,3.57,3.57,0,0,1-2.73,1.12,3.39,3.39,0,0,1-2.63-1.12,4,4,0,0,1-1-2.81v-1.64a4,4,0,0,1,1-2.81,3.38,3.38,0,0,1,2.63-1.12,3.56,3.56,0,0,1,2.73,1.12,4,4,0,0,1,1.05,2.81Zm-1.25-1.66a3.12,3.12,0,0,0-.69-2.08,2.28,2.28,0,0,0-1.84-.81,2.12,2.12,0,0,0-1.74.81,3.23,3.23,0,0,0-.65,2.08v1.66a3.25,3.25,0,0,0,.65,2.09,2.12,2.12,0,0,0,1.74.81,2.29,2.29,0,0,0,1.84-.81,3.14,3.14,0,0,0,.68-2.1Z"/><path class="cls-15" d="M549.59,202.06v4h-1.25v-9.24h3.35a3.51,3.51,0,0,1,2.32.67,2.41,2.41,0,0,1,.8,2,2.1,2.1,0,0,1-.37,1.24,2.52,2.52,0,0,1-1.08.84,1.9,1.9,0,0,1,1.1.8,2.64,2.64,0,0,1,.33,1.37v.87a2.94,2.94,0,0,0,.09.77,1.17,1.17,0,0,0,.33.56v.15h-1.29a1,1,0,0,1-.32-.63,5.2,5.2,0,0,1-.07-.86v-.84a1.67,1.67,0,0,0-.44-1.21,1.55,1.55,0,0,0-1.17-.46Zm0-1h2a2.33,2.33,0,0,0,1.53-.4,1.53,1.53,0,0,0,.47-1.23,1.58,1.58,0,0,0-.45-1.21,2,2,0,0,0-1.41-.43h-2.1Z"/><path class="cls-15" d="M557,206.06v-9.24h2.84a3.8,3.8,0,0,1,4,4v1.26a3.79,3.79,0,0,1-4,4Zm1.25-8.26v7.27h1.59a2.55,2.55,0,0,0,2-.84,3.16,3.16,0,0,0,.74-2.16V200.8a3.14,3.14,0,0,0-.74-2.15,2.55,2.55,0,0,0-2-.84Z"/><path class="cls-15" d="M571,201.78h-4.23v3.3h4.88v1h-6.13v-9.24h6.06v1h-4.81v3H571Z"/><path class="cls-15" d="M574.36,202.06v4h-1.25v-9.24h3.35a3.51,3.51,0,0,1,2.32.67,2.41,2.41,0,0,1,.8,2,2.1,2.1,0,0,1-.37,1.24,2.52,2.52,0,0,1-1.08.84,1.9,1.9,0,0,1,1.1.8,2.64,2.64,0,0,1,.33,1.37v.87a2.94,2.94,0,0,0,.09.77,1.17,1.17,0,0,0,.33.56v.15h-1.29a1,1,0,0,1-.32-.63,5.21,5.21,0,0,1-.07-.86v-.84a1.67,1.67,0,0,0-.44-1.21,1.55,1.55,0,0,0-1.17-.46Zm0-1h2a2.33,2.33,0,0,0,1.53-.4,1.53,1.53,0,0,0,.47-1.23,1.58,1.58,0,0,0-.45-1.21,2,2,0,0,0-1.41-.43h-2.1Z"/><path class="cls-15" d="M584.65,202.31a8.49,8.49,0,0,1,1-4.27,5.84,5.84,0,0,1,2.12-2.36h0l.24.74a5.42,5.42,0,0,0-1.51,2.18,9.37,9.37,0,0,0-.64,3.7v.08a9.41,9.41,0,0,0,.64,3.7,5.9,5.9,0,0,0,1.52,2.23l-.24.69h0a5.84,5.84,0,0,1-2.12-2.36,8.48,8.48,0,0,1-1-4.28Z"/><path class="cls-15" d="M592.45,206.06H591.2v-8l-1.89,0v-.9l3.14-.34Z"/><path class="cls-15" d="M598.69,205.21a1.77,1.77,0,0,0,1.46-.69,3.25,3.25,0,0,0,.55-2.05v-.42a2,2,0,0,1-.78.68,2.31,2.31,0,0,1-1,.23,2.8,2.8,0,0,1-2.13-.83,3.61,3.61,0,0,1,0-4.56,2.68,2.68,0,0,1,2-.89,3,3,0,0,1,2.28.9,3.8,3.8,0,0,1,.83,2.66v2.2a3.9,3.9,0,0,1-.9,2.77,3.08,3.08,0,0,1-2.36,1,5.48,5.48,0,0,1-1-.09,3.57,3.57,0,0,1-.9-.28l.19-1a2.86,2.86,0,0,0,.78.28A4.88,4.88,0,0,0,598.69,205.21Zm.2-3.23a2.08,2.08,0,0,0,1.15-.3,1.72,1.72,0,0,0,.66-.76v-.8a3,3,0,0,0-.47-1.83,1.6,1.6,0,0,0-1.36-.62,1.44,1.44,0,0,0-1.17.61,2.83,2.83,0,0,0,0,3.11A1.45,1.45,0,0,0,598.88,202Z"/><path class="cls-15" d="M605.22,200.87h1.09a1.46,1.46,0,0,0,1.18-.42,1.76,1.76,0,0,0,.35-1.16,1.68,1.68,0,0,0-.39-1.21,1.53,1.53,0,0,0-1.16-.41,1.61,1.61,0,0,0-1.17.43,1.51,1.51,0,0,0-.44,1.14h-1.2v0a2.24,2.24,0,0,1,.76-1.78,2.92,2.92,0,0,1,2.07-.73,3,3,0,0,1,2,.68,2.48,2.48,0,0,1,.76,1.95,2.22,2.22,0,0,1-1.38,2,2,2,0,0,1,1.18.86,2.73,2.73,0,0,1-.48,3.29,3.1,3.1,0,0,1-2.12.72,3.18,3.18,0,0,1-2.09-.68,2.19,2.19,0,0,1-.8-1.85l0,0h1.19a1.53,1.53,0,0,0,.45,1.16,1.7,1.7,0,0,0,1.23.43,1.73,1.73,0,0,0,1.24-.43,1.68,1.68,0,0,0,.45-1.27,1.44,1.44,0,0,0-1.66-1.66h-1.09Z"/><path class="cls-15" d="M616.49,199.23a2.06,2.06,0,0,1-.41,1.27,2.42,2.42,0,0,1-1.1.81,2.76,2.76,0,0,1,1.28.88,2.14,2.14,0,0,1,.48,1.38,2.37,2.37,0,0,1-.83,2,3.84,3.84,0,0,1-4.35,0,2.38,2.38,0,0,1-.83-2,2.16,2.16,0,0,1,.47-1.38,2.7,2.7,0,0,1,1.27-.88,2.35,2.35,0,0,1-1.09-.81,2.1,2.1,0,0,1-.39-1.27,2.37,2.37,0,0,1,.75-1.88,2.9,2.9,0,0,1,2-.66,2.94,2.94,0,0,1,2,.66A2.35,2.35,0,0,1,616.49,199.23Zm-1,4.3a1.67,1.67,0,0,0-.5-1.25,1.75,1.75,0,0,0-1.27-.49,1.67,1.67,0,0,0-1.75,1.74,1.59,1.59,0,0,0,.48,1.23,2,2,0,0,0,2.55,0A1.59,1.59,0,0,0,615.5,203.54Zm-.26-4.27a1.58,1.58,0,0,0-.43-1.14,1.54,1.54,0,0,0-2.16,0,1.61,1.61,0,0,0-.41,1.15,1.55,1.55,0,0,0,.42,1.13,1.59,1.59,0,0,0,2.17,0A1.54,1.54,0,0,0,615.24,199.26Z"/><path class="cls-15" d="M620.85,202.37a8.47,8.47,0,0,1-1,4.28,5.89,5.89,0,0,1-2.12,2.36h0l-.24-.69a5.4,5.4,0,0,0,1.51-2.19,9.55,9.55,0,0,0,.65-3.74v-.08a9.22,9.22,0,0,0-.67-3.7,6.11,6.11,0,0,0-1.49-2.23l.24-.69h0a5.88,5.88,0,0,1,2.12,2.36,8.48,8.48,0,0,1,1,4.27Z"/><path class="cls-18" d="M321.73,475.2h-1.25v-8l-1.89,0v-.9l3.14-.34Z"/><path class="cls-18" d="M331.14,468.37a2.06,2.06,0,0,1-.41,1.27,2.42,2.42,0,0,1-1.1.81,2.77,2.77,0,0,1,1.28.88,2.14,2.14,0,0,1,.48,1.38,2.37,2.37,0,0,1-.83,2,3.85,3.85,0,0,1-4.35,0,2.38,2.38,0,0,1-.83-2,2.16,2.16,0,0,1,.47-1.38,2.71,2.71,0,0,1,1.27-.88,2.35,2.35,0,0,1-1.09-.81,2.1,2.1,0,0,1-.39-1.27,2.37,2.37,0,0,1,.75-1.88,2.9,2.9,0,0,1,2-.66,2.94,2.94,0,0,1,2,.66A2.34,2.34,0,0,1,331.14,468.37Zm-1,4.3a1.67,1.67,0,0,0-.5-1.25,1.75,1.75,0,0,0-1.27-.49,1.67,1.67,0,0,0-1.75,1.74,1.59,1.59,0,0,0,.48,1.23,2,2,0,0,0,2.55,0A1.59,1.59,0,0,0,330.15,472.67Zm-.26-4.27a1.59,1.59,0,0,0-.43-1.14,1.54,1.54,0,0,0-2.16,0,1.61,1.61,0,0,0-.41,1.15,1.55,1.55,0,0,0,.42,1.13,1.6,1.6,0,0,0,2.17,0A1.54,1.54,0,0,0,329.89,468.39Z"/><path class="cls-18" d="M338.79,466.94a13,13,0,0,0-2.26,3.53,15.76,15.76,0,0,0-.85,3.73l-.1,1h-1.25l.1-1a13.58,13.58,0,0,1,1-3.9,15,15,0,0,1,2.1-3.36h-5v-1h6.25Z"/><path class="cls-18" d="M342.61,474.34a1.78,1.78,0,0,0,1.46-.69,3.25,3.25,0,0,0,.55-2.05v-.42a2,2,0,0,1-.78.68,2.31,2.31,0,0,1-1,.23,2.79,2.79,0,0,1-2.13-.83,3.61,3.61,0,0,1,0-4.56,2.68,2.68,0,0,1,2-.89,3,3,0,0,1,2.28.91,3.79,3.79,0,0,1,.83,2.66v2.2a3.9,3.9,0,0,1-.9,2.77,3.08,3.08,0,0,1-2.36,1,5.44,5.44,0,0,1-1-.09,3.58,3.58,0,0,1-.9-.28l.19-1a2.89,2.89,0,0,0,.78.28A4.87,4.87,0,0,0,342.61,474.34Zm.2-3.23a2.08,2.08,0,0,0,1.15-.3,1.72,1.72,0,0,0,.66-.76v-.8a3,3,0,0,0-.47-1.83,1.6,1.6,0,0,0-1.36-.62,1.44,1.44,0,0,0-1.17.61,2.83,2.83,0,0,0,0,3.11A1.45,1.45,0,0,0,342.8,471.11Z"/><path class="cls-18" d="M352.3,471.49v3.71h-1.25V466h3.54a3.25,3.25,0,0,1,2.3.76,2.88,2.88,0,0,1,0,4,3.28,3.28,0,0,1-2.3.75Zm0-1h2.29a1.68,1.68,0,0,0,1.87-1.77,1.83,1.83,0,0,0-.47-1.28,1.8,1.8,0,0,0-1.4-.51H352.3Z"/><path class="cls-18" d="M360.63,471.19v4h-1.25V466h3.35a3.51,3.51,0,0,1,2.32.67,2.41,2.41,0,0,1,.8,2,2.1,2.1,0,0,1-.37,1.24,2.53,2.53,0,0,1-1.08.84,1.9,1.9,0,0,1,1.1.8,2.63,2.63,0,0,1,.33,1.37v.87a2.94,2.94,0,0,0,.09.77,1.17,1.17,0,0,0,.33.56v.15H365a1,1,0,0,1-.32-.63,5.21,5.21,0,0,1-.07-.86v-.84a1.67,1.67,0,0,0-.44-1.21,1.55,1.55,0,0,0-1.17-.46Zm0-1h2a2.33,2.33,0,0,0,1.53-.4,1.53,1.53,0,0,0,.47-1.23,1.58,1.58,0,0,0-.45-1.21,2,2,0,0,0-1.41-.43h-2.1Z"/><path class="cls-18" d="M375,471.4a3.94,3.94,0,0,1-1.05,2.81,3.57,3.57,0,0,1-2.73,1.12,3.38,3.38,0,0,1-2.63-1.12,4,4,0,0,1-1-2.81v-1.64a4,4,0,0,1,1-2.81,3.38,3.38,0,0,1,2.63-1.12,3.57,3.57,0,0,1,2.73,1.12,4,4,0,0,1,1.05,2.81Zm-1.25-1.66a3.12,3.12,0,0,0-.69-2.08,2.29,2.29,0,0,0-1.84-.81,2.12,2.12,0,0,0-1.74.81,3.23,3.23,0,0,0-.65,2.08v1.66a3.25,3.25,0,0,0,.65,2.09,2.12,2.12,0,0,0,1.74.81,2.29,2.29,0,0,0,1.84-.81,3.14,3.14,0,0,0,.68-2.1Z"/><path class="cls-18" d="M378.11,471.49v3.71h-1.25V466h3.54a3.25,3.25,0,0,1,2.3.76,2.88,2.88,0,0,1,0,4,3.28,3.28,0,0,1-2.3.75Zm0-1h2.29a1.68,1.68,0,0,0,1.87-1.77,1.83,1.83,0,0,0-.47-1.28,1.8,1.8,0,0,0-1.4-.51h-2.29Z"/><path class="cls-18" d="M392.18,471.4a3.94,3.94,0,0,1-1.05,2.81,3.57,3.57,0,0,1-2.73,1.12,3.38,3.38,0,0,1-2.63-1.12,4,4,0,0,1-1-2.81v-1.64a4,4,0,0,1,1-2.81,3.38,3.38,0,0,1,2.63-1.12,3.57,3.57,0,0,1,2.73,1.12,4,4,0,0,1,1.05,2.81Zm-1.25-1.66a3.12,3.12,0,0,0-.69-2.08,2.29,2.29,0,0,0-1.84-.81,2.12,2.12,0,0,0-1.74.81,3.23,3.23,0,0,0-.65,2.08v1.66a3.25,3.25,0,0,0,.65,2.09,2.12,2.12,0,0,0,1.74.81,2.29,2.29,0,0,0,1.84-.81,3.14,3.14,0,0,0,.68-2.1Z"/><path class="cls-18" d="M399.08,472.87a1.36,1.36,0,0,0-.48-1.06,4,4,0,0,0-1.69-.72,5.59,5.59,0,0,1-2.29-1,2.13,2.13,0,0,1-.82-1.71,2.24,2.24,0,0,1,.89-1.81,3.51,3.51,0,0,1,2.29-.73,3.41,3.41,0,0,1,2.42.83,2.45,2.45,0,0,1,.87,1.93v0h-1.19a1.72,1.72,0,0,0-.54-1.31,2.63,2.63,0,0,0-3-.08,1.37,1.37,0,0,0-.5,1.1,1.21,1.21,0,0,0,.54,1,5.12,5.12,0,0,0,1.75.71,5,5,0,0,1,2.22,1.07,2.28,2.28,0,0,1,.76,1.75,2.13,2.13,0,0,1-.91,1.8,3.91,3.91,0,0,1-2.39.68,4.13,4.13,0,0,1-2.45-.75,2.27,2.27,0,0,1-1-2v0h1.19a1.55,1.55,0,0,0,.65,1.35,2.72,2.72,0,0,0,1.62.46,2.52,2.52,0,0,0,1.5-.4A1.26,1.26,0,0,0,399.08,472.87Z"/><path class="cls-18" d="M403.47,475.2h-1.26V466h1.26Z"/><path class="cls-18" d="M411.9,466.94h-3v8.26h-1.25v-8.26h-3v-1h7.19Z"/><path class="cls-18" d="M414.58,475.2h-1.26V466h1.26Z"/><path class="cls-18" d="M423.93,471.4a3.94,3.94,0,0,1-1.05,2.81,3.57,3.57,0,0,1-2.73,1.12,3.38,3.38,0,0,1-2.63-1.12,4,4,0,0,1-1-2.81v-1.64a4,4,0,0,1,1-2.81,3.38,3.38,0,0,1,2.63-1.12,3.57,3.57,0,0,1,2.73,1.12,4,4,0,0,1,1.05,2.81Zm-1.25-1.66a3.12,3.12,0,0,0-.69-2.08,2.29,2.29,0,0,0-1.84-.81,2.12,2.12,0,0,0-1.74.81,3.23,3.23,0,0,0-.65,2.08v1.66a3.25,3.25,0,0,0,.65,2.09,2.12,2.12,0,0,0,1.74.81,2.29,2.29,0,0,0,1.84-.81,3.14,3.14,0,0,0,.68-2.1Z"/><path class="cls-18" d="M432.79,475.2h-1.25L427.09,468h0v7.13H425.8V466H427l4.45,7.13h0V466h1.25Z"/><path class="cls-19" d="M207.13,290.12a4.91,4.91,0,0,1,.6-.09h3.09c.9,0,1.34,1.8,2.91,0s3.53-.72,4.45-2.05,2.49-2,3.39-2.68a9.56,9.56,0,0,1,2.91-1.13,9,9,0,0,1,2.46,0c.9,0,1.77-1.78,2.79-.1a21.09,21.09,0,0,0,3.79,3.91,8.6,8.6,0,0,0,3,.57c1.34-.09,2.69.31,3.81-.57a15.56,15.56,0,0,1,2.91-1.78c.9-.45.48-.68,1.58-1.58s-.85-1.36,1.89-2.31,12.57-4,12.57-4,6.3-2.55,7.55-3.31,9.37-7.47,9.37-7.47l2.86-4.91h5.76l6.69-5.65,4.3-6.32a17.89,17.89,0,0,0,1.36-4.21c.19-1.69-1.36-7.51-1.36-7.51h0v-5.55l.9-6.32.48-3.79h0l2.85-7.16L295.9,209l-8-8.09-4.95-7.58v-5.9s-1.57-22.33,0-25.28,2.89-8,4.95-9.27a14.61,14.61,0,0,0,3.73-3.79l-.84-6.65s-1.67-5.57-.84-7.25a53.39,53.39,0,0,0,2.09-6.32,33.09,33.09,0,0,0,8.11-5.48l2.86-9.27,3-4.63,20.84-15.16s18.28-11.81,19.53-13.49,9.74-7.58,9.74-7.58l10.55-6.16"/><path class="cls-20" d="M674,284.74l22.37-6.63L676.1,253.93l19.58-64.45,7-6.33v-7.59l-3.16-7,15.18-52.5s3.05-7.33,7.56-7.33,9.44-1.82,6.52-3.84-4.27-3.37-6.52-3.82-4.05-1.8-4.51-3.6,1.35-3.6.9-5.41l-.45-1.8-6.76-5.41-1.35-5.41A19.54,19.54,0,0,0,707.8,75c-.45-5.86,1.35-6.31.9-9.91s3.15-1.8-.45-3.6l-3.6-1.8h0c-1.8-3.6-5.86-5.41-5.41-8.11s2.25-2.25,3.15-4.51,1.35-3.6,0-4.51-4.05-3.6-5.41-3.15l-1.35.45L691.13,34a105.79,105.79,0,0,0-11.54,5L674.07,29,670,26.33s-7.24,2.7-8.59,0-12.67-2.43-12.67-2.43l-.35.49a79.24,79.24,0,0,0-4.83,6.83c-.85,1.69-3,7.61-3.8,9.3s-8,6.76-8,6.76l-.82,3a60,60,0,0,0-1.29,5.92l-.85,6.34c-.85,6.34.42,3,1.27,7.61s0,0,.6,5.92,0,5.49,0,5.49v4.23L628.75,90l-3.8,2.54s.42,2.11-2.11,7.41c-.72,1.5-7.48,0-7.48,0h-5.62l-7.26,3.58-4.1,2.11-7.49-2.54-5.82-5.74-5.35-2.7-7.94.36-6.46-.36-6.73-5.51V83.21L551,82.36a36.2,36.2,0,0,1-9.83,1.69c-4.76,0-4.54.42-8.35.42s-2.54-.42-11.47.42-5.1,3.38-5.1,3.38S506.17,90,504.4,91.66s-15.1,1.69-15.1,1.69-4.68.42-11,1.28-4.65-1.28-11.65-2.13-5.68-1.69-11.18-6.34l-6.61.42-6.07-1.69L436,81.52l-6.78-3.38-5.33-3.38-4.78-2.32L411.67,68l-10.11,3.17L395.22,68l-6.59,2.54h-9.89l-11.21-2.44-.3-.07-9.63,5.49s-8.57,5.91-9.84,7.6S328,94.65,328,94.65l-21,15.19-3.07,4.65L301,123.78a33.41,33.41,0,0,1-8.19,5.49,53.26,53.26,0,0,1-2.11,6.34c-.84,1.69.84,7.27.84,7.27l.84,6.67a14.69,14.69,0,0,1-3.77,3.8c-2.08,1.27-3.41,6.34-5,9.29s0,25.34,0,25.34v5.91l5,7.6,8.11,8.11,4.27,7.1-2.88,7.18h0l-.49,3.8-.91,6.34v5.56h0s1.57,5.84,1.38,7.53a17.86,17.86,0,0,1-1.38,4.22l-4.34,6.34-6.76,5.67h-5.81L277,268.27s-8.19,6.73-9.46,7.49-7.62,3.32-7.62,3.32-9.92,3.08-12.69,4-.79,1.41-1.91,2.31-.69,1.13-1.6,1.58a15.74,15.74,0,0,0-2.94,1.79c-1.13.88-2.49.48-3.85.57a8.74,8.74,0,0,1-3.08-.57,21.23,21.23,0,0,1-3.83-3.92c-1-1.68-1.91.1-2.82.1a9.12,9.12,0,0,0-2.49,0,9.69,9.69,0,0,0-2.94,1.13c-.9.68-2.49,1.36-3.42,2.69s-2.91.25-4.5,2.06-2,0-2.94,0h-3.12l-.18.11c.55.9.05,19.87.05,19.87s6.54.42,4.93,4-5.49,4.23-4.93,6.94,0-1.73.55,2.7a71,71,0,0,0,2,9.43c.76,3.33-.21,3.33,0,6.66s1.32-2.77.21,3.33a90.31,90.31,0,0,1-2.83,11.22,12.67,12.67,0,0,1,5.91,2.89l3,2.53,12.2,7.94s-6.8,5.38-4.51,8.71,3.81,11.1,3.81,11.1l-4.62,7.06-8.44,10"/></g></svg>